<?xml version="1.0" standalone="no"?>
<!DOCTYPE svg PUBLIC "-//W3C//DTD SVG 1.1//EN" "http://www.w3.org/Graphics/SVG/1.1/DTD/svg11.dtd">
<svg xmlns="http://www.w3.org/2000/svg">
<metadata>Copyright (C) 2019 by original authors @ fontello.com</metadata>
<defs>
<font id="halflings-pro" horiz-adv-x="1000" >
<font-face font-family="halflings-pro" font-weight="400" font-stretch="normal" units-per-em="1000" ascent="850" descent="-150" />
<missing-glyph horiz-adv-x="1000" />
<glyph glyph-name="halflings-pro-axes-two-dimensional" unicode="&#xe800;" d="M878 132l-175-175a25 25 0 0 0-35 0l-36 36a25 25 0 0 0 0 35l72 72h-429a25 25 0 0 0-25 25v429l-72-72a25 25 0 0 0-35 0l-36 36a25 25 0 0 0 0 35l175 175a25 25 0 0 0 36 0l175-175a25 25 0 0 0 0-35l-36-36a25 25 0 0 0-35 0l-72 72v-354h354l-72 72a25 25 0 0 0 0 35l36 36a25 25 0 0 0 35 0l175-175a25 25 0 0 0 0-36z" horiz-adv-x="1000" />

<glyph glyph-name="halflings-pro-bank" unicode="&#xe801;" d="M850 75v-100a25 25 0 0 0-25-25h-650a25 25 0 0 0-25 25v100a25 25 0 0 0 25 25h75v250h100v-250h100v250h100v-250h100v250h100v-250h75a25 25 0 0 0 25-25z m-13 482l-325 186a25 25 0 0 1-24 0l-325-186a25 25 0 0 1-13-21v-61a25 25 0 0 1 25-25h650a25 25 0 0 1 25 25v61a25 25 0 0 1-13 21z" horiz-adv-x="1000" />

<glyph glyph-name="halflings-pro-barcode" unicode="&#xe802;" d="M200 50h250v-100h-250z m0 700h-100v-600h100z m200 0h-100v-600h100z m350-800h100v100h-100z m-50 800v-600h200v600z m-150-800h100v100h-100z m50 800h-100v-600h100z" horiz-adv-x="1000" />

<glyph glyph-name="halflings-pro-bars" unicode="&#xe803;" d="M300 150v-150a50 50 0 0 0-50-50h-100a50 50 0 0 0-50 50v150a50 50 0 0 0 50 50h100a50 50 0 0 0 50-50z m250 250h-100a50 50 0 0 1-50-50v-350a50 50 0 0 1 50-50h100a50 50 0 0 1 50 50v350a50 50 0 0 1-50 50z m300 350h-100a50 50 0 0 1-50-50v-700a50 50 0 0 1 50-50h100a50 50 0 0 1 50 50v700a50 50 0 0 1-50 50z" horiz-adv-x="1000" />

<glyph glyph-name="halflings-pro-basket" unicode="&#xe804;" d="M552 719a50 50 0 1 0 83 56l117-175h-120z m398-269v-50a50 50 0 0 0-50-50h-50l-39-312a100 100 0 0 0-99-88h-474a100 100 0 0 0-99 88l-39 312h-50a50 50 0 0 0-50 50v50a50 50 0 0 0 50 50h850a50 50 0 0 0 50-50z m-550-300h-100v-100h100z m0 200h-100v-100h100z m250-200h-100v-100h100z m0 200h-100v-100h100z m-252 369a50 50 0 1 1-83 56l-117-175h120z" horiz-adv-x="1000" />

<glyph glyph-name="halflings-pro-basket-in" unicode="&#xe805;" d="M900 500h-328l-20-28a125 125 0 0 0-204 0l-20 28h-278a50 50 0 0 1-50-50v-50a50 50 0 0 1 50-50h50l39-312a100 100 0 0 1 99-88h474a100 100 0 0 1 99 88l39 312h50a50 50 0 0 1 50 50v50a50 50 0 0 1-50 50z m-500-450h-100v100h100z m0 200h-100v100h100z m250-200h-100v100h100z m0 200h-100v100h100z m-347 461a25 25 0 0 0 20 39h77v75a25 25 0 0 0 25 25h50a25 25 0 0 0 25-25v-75h77a25 25 0 0 0 21-39l-127-182a25 25 0 0 0-41 0z" horiz-adv-x="1000" />

<glyph glyph-name="halflings-pro-basket-out" unicode="&#xe806;" d="M900 500h-300a100 100 0 0 0-100-100h-100a100 100 0 0 0-100 100h-250a50 50 0 0 1-50-50v-50a50 50 0 0 1 50-50h50l39-312a100 100 0 0 1 99-88h474a100 100 0 0 1 99 88l39 312h50a50 50 0 0 1 50 50v50a50 50 0 0 1-50 50z m-500-450h-100v100h100z m0 200h-100v100h100z m250-200h-100v100h100z m0 200h-100v100h100z m-347 389l127 182a25 25 0 0 0 41 0l127-182a25 25 0 0 0-21-39h-77v-75a25 25 0 0 0-25-25h-50a25 25 0 0 0-25 25v75h-77a25 25 0 0 0-20 39z" horiz-adv-x="1000" />

<glyph glyph-name="halflings-pro-bell" unicode="&#xe807;" d="M900 129v-29a50 50 0 0 0-50-50h-700a50 50 0 0 0-50 50v29a50 50 0 0 0 15 36l56 56a100 100 0 0 1 29 70v159a300 300 0 0 0 600 0v-159a100 100 0 0 1 29-70l56-56a50 50 0 0 0 15-36z m-400-279a100 100 0 0 1 100 100h-200a100 100 0 0 1 100-100z" horiz-adv-x="1000" />

<glyph glyph-name="halflings-pro-bell-off" unicode="&#xe808;" d="M400-50h200a100 100 0 0 0-200 0z m485 215l-56 56a100 100 0 0 0-29 70v159a301 301 0 0 1-5 57l-457-457h512a50 50 0 0 1 50 50v29a50 50 0 0 1-15 36z m-17 620a50 50 0 0 1-71 0l-105-105a299 299 0 0 1-492-230v-159a100 100 0 0 0-29-70l-56-56a50 50 0 0 1-15-36v-29a48 48 0 0 1 2-10l-37-37a50 50 0 1 1 70-71l733 733a50 50 0 0 1 0 70z" horiz-adv-x="1000" />

<glyph glyph-name="halflings-pro-bin" unicode="&#xe809;" d="M850 600v-50h-700v50a50 50 0 0 0 50 50h150v50a50 50 0 0 0 50 50h200a50 50 0 0 0 50-50v-50h150a50 50 0 0 0 50-50z m-650-550a100 100 0 0 1 100-100h400a100 100 0 0 1 100 100v400h-600z" horiz-adv-x="1000" />

<glyph glyph-name="halflings-pro-bluetooth" unicode="&#xe80a;" d="M557 375l165 123a25 25 0 0 1 1 40l-282 235a25 25 0 0 1-41-20v-260l-117 88a25 25 0 0 1-35-5l-30-40a25 25 0 0 1 5-35l168-126-168-126a25 25 0 0 1-5-35l30-40a25 25 0 0 1 35-5l117 88v-260a25 25 0 0 1 41-20l282 235a25 25 0 0 1-1 40z m-57 218l86-71-86-65z m0-436v136l86-64z" horiz-adv-x="1000" />

<glyph glyph-name="halflings-pro-bold" unicode="&#xe80b;" d="M737 369a225 225 0 0 1-162 381h-325a50 50 0 0 1-50-50v-50a50 50 0 0 1 50-50h50v-500h-50a50 50 0 0 1-50-50v-50a50 50 0 0 1 50-50h375a224 224 0 0 1 112 419z m-287 231h125a75 75 0 0 0 0-150h-125z m175-500h-175v150h175a75 75 0 0 0 0-150z" horiz-adv-x="1000" />

<glyph glyph-name="halflings-pro-book" unicode="&#xe80c;" d="M250 100a50 50 0 0 1 50-50h550v-50a50 50 0 0 0-50-50h-500a150 150 0 0 0-150 150v500a150 150 0 0 0 150 150h500a50 50 0 0 0 50-50v-550h-550a50 50 0 0 1-50-50z" horiz-adv-x="1000" />

<glyph glyph-name="halflings-pro-bookmark" unicode="&#xe80d;" d="M800 650v-611a50 50 0 0 0-85-35l-190 190-190-190a50 50 0 0 0-85 35v611a100 100 0 0 0 100 100h350a100 100 0 0 0 100-100z" horiz-adv-x="1000" />

<glyph glyph-name="halflings-pro-briefcase" unicode="&#xe80e;" d="M800 550h-600a100 100 0 0 1-100-100v-400a100 100 0 0 1 100-100h600a100 100 0 0 1 100 100v400a100 100 0 0 1-100 100z m-200-175a25 25 0 0 0-25-25h-150a25 25 0 0 0-25 25v50a25 25 0 0 0 25 25h150a25 25 0 0 0 25-25z m-200 275h-100a150 150 0 0 0 150 150h100a150 150 0 0 0 150-150h-100a50 50 0 0 1-50 50h-100a50 50 0 0 1-50-50z" horiz-adv-x="1000" />

<glyph glyph-name="halflings-pro-building" unicode="&#xe80f;" d="M750 750h-500a50 50 0 0 1-50-50v-750h200v175a25 25 0 0 0 25 25h150a25 25 0 0 0 25-25v-175h200v750a50 50 0 0 1-50 50z m-300-437a13 13 0 0 0-12-13h-75a13 13 0 0 0-13 13v75a13 13 0 0 0 13 12h75a13 13 0 0 0 12-12z m0 200a13 13 0 0 0-12-13h-75a13 13 0 0 0-13 13v75a13 13 0 0 0 13 12h75a13 13 0 0 0 12-12z m200-200a13 13 0 0 0-12-13h-75a13 13 0 0 0-13 13v75a13 13 0 0 0 13 12h75a13 13 0 0 0 12-12z m0 200a13 13 0 0 0-12-13h-75a13 13 0 0 0-13 13v75a13 13 0 0 0 13 12h75a13 13 0 0 0 12-12z" horiz-adv-x="1000" />

<glyph glyph-name="halflings-pro-calendar" unicode="&#xe810;" d="M450 425v-50a25 25 0 0 0-25-25h-50a25 25 0 0 0-25 25v50a25 25 0 0 0 25 25h50a25 25 0 0 0 25-25z m175-175h-50a25 25 0 0 1-25-25v-50a25 25 0 0 1 25-25h50a25 25 0 0 1 25 25v50a25 25 0 0 1-25 25z m0 200h-50a25 25 0 0 1-25-25v-50a25 25 0 0 1 25-25h50a25 25 0 0 1 25 25v50a25 25 0 0 1-25 25z m-200-200h-50a25 25 0 0 1-25-25v-50a25 25 0 0 1 25-25h50a25 25 0 0 1 25 25v50a25 25 0 0 1-25 25z m425 400v-600a100 100 0 0 0-100-100h-500a100 100 0 0 0-100 100v600a100 100 0 0 0 100 100v-75a25 25 0 0 1 25-25h50a25 25 0 0 1 25 25v50a25 25 0 0 0 25 25h50a25 25 0 0 0 25-25v-50a25 25 0 0 1 25-25h50a25 25 0 0 1 25 25v50a25 25 0 0 0 25 25h50a25 25 0 0 0 25-25v-50a25 25 0 0 1 25-25h50a25 25 0 0 1 25 25v75a100 100 0 0 0 100-100z m-100-600l0 500h-500v-500z" horiz-adv-x="1000" />

<glyph glyph-name="halflings-pro-call" unicode="&#xe811;" d="M870 57l-53-53a179 179 0 0 0-186-43 856 856 0 0 0-303 213 856 856 0 0 0-212 302 179 179 0 0 0 42 187l53 53a50 50 0 0 0 71 0l81-82a50 50 0 0 0 0-70l-46-46a50 50 0 0 1-4-67 1465 1465 0 0 1 138-154 1463 1463 0 0 1 155-138 50 50 0 0 1 66 4l46 46a50 50 0 0 0 71 0l81-82a50 50 0 0 0 0-70z" horiz-adv-x="1000" />

<glyph glyph-name="halflings-pro-camera" unicode="&#xe812;" d="M600 300a100 100 0 1 0-100 100 100 100 0 0 0 100-100z m300 200v-400a100 100 0 0 0-100-100h-600a100 100 0 0 0-100 100v400a100 100 0 0 0 100 100h100l28 55a89 89 0 0 0 72 45h200a89 89 0 0 0 72-45l28-55h100a100 100 0 0 0 100-100z m-200-200a200 200 0 1 1-200-200 200 200 0 0 1 200 200z" horiz-adv-x="1000" />

<glyph glyph-name="halflings-pro-cart" unicode="&#xe813;" d="M889 632a50 50 0 0 1-39 18h-584l-18 63a50 50 0 0 1-48 37h-100a50 50 0 0 1 0-100h62l140-513a50 50 0 0 1 48-37h400a50 50 0 0 1 0 100h-362l-27 100h439a50 50 0 0 1 49 40l50 250a50 50 0 0 1-10 42z m-130-232h-425l-41 150h496z m41-400a50 50 0 1 0-50 50 50 50 0 0 0 50-50z m-400 0a50 50 0 1 0-50 50 50 50 0 0 0 50-50z" horiz-adv-x="1000" />

<glyph glyph-name="halflings-pro-cart-in" unicode="&#xe814;" d="M899 590l-50-250a50 50 0 0 0-49-40h-439l27-100h362a50 50 0 0 0 0-100h-400a50 50 0 0 0-48 37l-140 513h-62a50 50 0 0 0 0 100h100a50 50 0 0 0 48-37l86-313h425l41 205v45h50a50 50 0 0 0 49-60z m-149-540a50 50 0 1 1 50-50 50 50 0 0 1-50 50z m-400 0a50 50 0 1 1 50-50 50 50 0 0 1-50 50z m180 429a25 25 0 0 1 41 0l127 182a25 25 0 0 1-21 39h-77v75a25 25 0 0 1-25 25h-50a25 25 0 0 1-25-25v-75h-77a25 25 0 0 1-20-39z" horiz-adv-x="1000" />

<glyph glyph-name="halflings-pro-cart-out" unicode="&#xe815;" d="M899 590l-50-250a50 50 0 0 0-49-40h-439l27-100h362a50 50 0 0 0 0-100h-400a50 50 0 0 0-48 37l-140 513h-62a50 50 0 0 0 0 100h100a50 50 0 0 0 48-37l86-313h425l41 205v45h50a50 50 0 0 0 49-60z m-149-540a50 50 0 1 1 50-50 50 50 0 0 1-50 50z m-400 0a50 50 0 1 1 50-50 50 50 0 0 1-50 50z m73 550h77v-75a25 25 0 0 1 25-25h50a25 25 0 0 1 25 25v75h77a25 25 0 0 1 21 39l-127 182a25 25 0 0 1-41 0l-127-182a25 25 0 0 1 20-39z" horiz-adv-x="1000" />

<glyph glyph-name="halflings-pro-chat-conversation" unicode="&#xe816;" d="M900 400v-200a150 150 0 0 0-100-141v-59a75 75 0 0 0-120-60l-147 110h-83a148 148 0 0 0-64 15l114 85h67l133-100v100h50a50 50 0 0 1 50 50v341a150 150 0 0 0 100-141z m-433-150l-147-110a75 75 0 0 0-120 60v59a150 150 0 0 0-100 141v200a150 150 0 0 0 150 150h300a150 150 0 0 0 150-150v-200a150 150 0 0 0-150-150z m-34 100h117a50 50 0 0 1 50 50v200a50 50 0 0 1-50 50h-300a50 50 0 0 1-50-50v-200a50 50 0 0 1 50-50h50v-100z" horiz-adv-x="1000" />

<glyph glyph-name="halflings-pro-chat-message" unicode="&#xe817;" d="M750 750h-500a150 150 0 0 1-150-150v-300a150 150 0 0 1 150-150v-90a75 75 0 0 1 128-53l143 143h229a150 150 0 0 1 150 150v300a150 150 0 0 1-150 150z m50-450a50 50 0 0 0-50-50h-271l-129-129v129h-100a50 50 0 0 0-50 50v300a50 50 0 0 0 50 50h500a50 50 0 0 0 50-50z" horiz-adv-x="1000" />

<glyph glyph-name="halflings-pro-check" unicode="&#xe818;" d="M884 616l-464-525a50 50 0 0 0-74-1l-231 244a25 25 0 0 0-1 33l40 51a25 25 0 0 0 31 6l182-91 432 369a25 25 0 0 0 34-2l50-50a25 25 0 0 0 1-34z" horiz-adv-x="1000" />

<glyph glyph-name="halflings-pro-chevron-down" unicode="&#xe819;" d="M500 341l237 237a25 25 0 0 0 35 0l81-81a25 25 0 0 0 0-35l-335-336a25 25 0 0 0-36 0l-335 336a25 25 0 0 0 0 35l81 81a25 25 0 0 0 35 0z" horiz-adv-x="1000" />

<glyph glyph-name="halflings-pro-chevron-last-down" unicode="&#xe81a;" d="M500 341l237 237a25 25 0 0 0 35 0l81-81a25 25 0 0 0 0-35l-335-336a25 25 0 0 0-36 0l-335 336a25 25 0 0 0 0 35l81 81a25 25 0 0 0 35 0z m325-291h-650a25 25 0 0 1-25-25v-50a25 25 0 0 1 25-25h650a25 25 0 0 1 25 25v50a25 25 0 0 1-25 25z" horiz-adv-x="1000" />

<glyph glyph-name="halflings-pro-chevron-last-left" unicode="&#xe81b;" d="M491 350l237-237a25 25 0 0 0 0-35l-81-81a25 25 0 0 0-35 0l-336 335a25 25 0 0 0 0 36l336 335a25 25 0 0 0 35 0l81-81a25 25 0 0 0 0-35z m-291-325v650a25 25 0 0 1-25 25h-50a25 25 0 0 1-25-25v-650a25 25 0 0 1 25-25h50a25 25 0 0 1 25 25z" horiz-adv-x="1000" />

<glyph glyph-name="halflings-pro-chevron-last-right" unicode="&#xe81c;" d="M509 350l-237 237a25 25 0 0 0 0 35l81 81a25 25 0 0 0 35 0l336-335a25 25 0 0 0 0-36l-336-335a25 25 0 0 0-35 0l-81 81a25 25 0 0 0 0 35z m291 325v-650a25 25 0 0 1 25-25h50a25 25 0 0 1 25 25v650a25 25 0 0 1-25 25h-50a25 25 0 0 1-25-25z" horiz-adv-x="1000" />

<glyph glyph-name="halflings-pro-chevron-last-up" unicode="&#xe81d;" d="M500 359l-237-237a25 25 0 0 0-35 0l-81 81a25 25 0 0 0 0 35l335 336a25 25 0 0 0 36 0l335-336a25 25 0 0 0 0-35l-81-81a25 25 0 0 0-35 0z m-325 291h650a25 25 0 0 1 25 25v50a25 25 0 0 1-25 25h-650a25 25 0 0 1-25-25v-50a25 25 0 0 1 25-25z m325-291l-237-237a25 25 0 0 0-35 0l-81 81a25 25 0 0 0 0 35l335 336a25 25 0 0 0 36 0l335-336a25 25 0 0 0 0-35l-81-81a25 25 0 0 0-35 0z m-325 291h650a25 25 0 0 1 25 25v50a25 25 0 0 1-25 25h-650a25 25 0 0 1-25-25v-50a25 25 0 0 1 25-25z" horiz-adv-x="1000" />

<glyph glyph-name="halflings-pro-chevron-left" unicode="&#xe81e;" d="M491 350l237-237a25 25 0 0 0 0-35l-81-81a25 25 0 0 0-35 0l-336 335a25 25 0 0 0 0 36l336 335a25 25 0 0 0 35 0l81-81a25 25 0 0 0 0-35z" horiz-adv-x="1000" />

<glyph glyph-name="halflings-pro-chevron-right" unicode="&#xe81f;" d="M509 350l-237 237a25 25 0 0 0 0 35l81 81a25 25 0 0 0 35 0l336-335a25 25 0 0 0 0-36l-336-335a25 25 0 0 0-35 0l-81 81a25 25 0 0 0 0 35z" horiz-adv-x="1000" />

<glyph glyph-name="halflings-pro-chevron-thin-down" unicode="&#xe820;" d="M482 122l-300 300a25 25 0 0 0 0 35l36 36a25 25 0 0 0 35 0l247-247 247 247a25 25 0 0 0 35 0l36-36a25 25 0 0 0 0-35l-300-300a25 25 0 0 0-36 0z" horiz-adv-x="1000" />

<glyph glyph-name="halflings-pro-chevron-thin-left" unicode="&#xe821;" d="M272 368l300 300a25 25 0 0 0 35 0l36-36a25 25 0 0 0 0-35l-247-247 247-247a25 25 0 0 0 0-35l-36-36a25 25 0 0 0-35 0l-300 300a25 25 0 0 0 0 36z" horiz-adv-x="1000" />

<glyph glyph-name="halflings-pro-chevron-thin-right" unicode="&#xe822;" d="M728 332l-300-300a25 25 0 0 0-35 0l-36 36a25 25 0 0 0 0 35l247 247-247 247a25 25 0 0 0 0 35l36 36a25 25 0 0 0 35 0l300-300a25 25 0 0 0 0-36z" horiz-adv-x="1000" />

<glyph glyph-name="halflings-pro-chevron-thin-up" unicode="&#xe823;" d="M518 578l300-300a25 25 0 0 0 0-35l-36-36a25 25 0 0 0-35 0l-247 247-247-247a25 25 0 0 0-35 0l-36 36a25 25 0 0 0 0 35l300 300a25 25 0 0 0 36 0z" horiz-adv-x="1000" />

<glyph glyph-name="halflings-pro-chevron-up" unicode="&#xe824;" d="M500 359l-237-237a25 25 0 0 0-35 0l-81 81a25 25 0 0 0 0 35l335 336a25 25 0 0 0 36 0l335-336a25 25 0 0 0 0-35l-81-81a25 25 0 0 0-35 0z" horiz-adv-x="1000" />

<glyph glyph-name="halflings-pro-circle-alert" unicode="&#xe825;" d="M500 750a400 400 0 1 1 400-400 400 400 0 0 1-400 400z m50-575a25 25 0 0 0-25-25h-50a25 25 0 0 0-25 25v50a25 25 0 0 0 25 25h50a25 25 0 0 0 25-25z m0 225l-13-79a25 25 0 0 0-25-21h-24a25 25 0 0 0-25 21l-13 79v175a25 25 0 0 0 25 25h50a25 25 0 0 0 25-25z" horiz-adv-x="1000" />

<glyph glyph-name="halflings-pro-circle-check" unicode="&#xe826;" d="M500 750a400 400 0 1 1 400-400 400 400 0 0 1-400 400z m214-286l-226-267a50 50 0 0 0-75-1l-112 124a25 25 0 0 0 1 33l27 30a25 25 0 0 0 32 4l81-51 214 185a25 25 0 0 0 33-1l23-22a25 25 0 0 0 2-34z" horiz-adv-x="1000" />

<glyph glyph-name="halflings-pro-circle-down" unicode="&#xe827;" d="M500 750a400 400 0 1 1 400-400 400 400 0 0 1-400 400z m148-439l-127-182a25 25 0 0 0-41 0l-127 182a25 25 0 0 0 20 39h77v175a25 25 0 0 0 25 25h50a25 25 0 0 0 25-25v-175h77a25 25 0 0 0 21-39z" horiz-adv-x="1000" />

<glyph glyph-name="halflings-pro-circle-empty" unicode="&#xe828;" d="M500 750a400 400 0 1 1 400-400 401 401 0 0 1-400 400z m0-700a300 300 0 1 0 300 300 300 300 0 0 0-300-300z" horiz-adv-x="1000" />

<glyph glyph-name="halflings-pro-circle-info" unicode="&#xe829;" d="M500 750a400 400 0 1 1 400-400 400 400 0 0 1-400 400z m-62-219l12 50a25 25 0 0 0 25 19h68a25 25 0 0 0 24-31l-12-50a25 25 0 0 0-24-19h-69a25 25 0 0 0-24 31z m134-312l-12-50a25 25 0 0 0-24-19h-119a25 25 0 0 0-24 31l42 169h-23a25 25 0 0 0-24 31l12 50a25 25 0 0 0 25 19h86a50 50 0 0 0 49-62l-35-138h23a25 25 0 0 0 24-31z" horiz-adv-x="1000" />

<glyph glyph-name="halflings-pro-circle-left" unicode="&#xe82a;" d="M500 750a400 400 0 1 1 400-400 400 400 0 0 1-400 400z m200-425a25 25 0 0 0-25-25h-175v-77a25 25 0 0 0-39-20l-182 127a25 25 0 0 0 0 41l182 127a25 25 0 0 0 39-21v-77h175a25 25 0 0 0 25-25z" horiz-adv-x="1000" />

<glyph glyph-name="halflings-pro-circle-menu" unicode="&#xe82b;" d="M500 750a400 400 0 1 1 400-400 400 400 0 0 1-400 400z m150-525a25 25 0 0 0-25-25h-250a25 25 0 0 0-25 25v50a25 25 0 0 0 25 25h250a25 25 0 0 0 25-25z m0 200a25 25 0 0 0-25-25h-250a25 25 0 0 0-25 25v50a25 25 0 0 0 25 25h250a25 25 0 0 0 25-25z" horiz-adv-x="1000" />

<glyph glyph-name="halflings-pro-circle-minus" unicode="&#xe82c;" d="M500 750a400 400 0 1 1 400-400 400 400 0 0 1-400 400z m200-425a25 25 0 0 0-25-25h-350a25 25 0 0 0-25 25v50a25 25 0 0 0 25 25h350a25 25 0 0 0 25-25z" horiz-adv-x="1000" />

<glyph glyph-name="halflings-pro-circle-more" unicode="&#xe82d;" d="M500 750a400 400 0 1 1 400-400 400 400 0 0 1-400 400z m-150-487a88 88 0 1 0 88 87 88 88 0 0 0-88-87z m300 0a88 88 0 1 0 88 87 88 88 0 0 0-88-87z" horiz-adv-x="1000" />

<glyph glyph-name="halflings-pro-circle-play" unicode="&#xe82e;" d="M500 750a400 400 0 1 1 400-400 400 400 0 0 1-400 400z m169-418l-230-153a25 25 0 0 0-39 21v305a25 25 0 0 0 39 21l230-153a25 25 0 0 0 0-41z" horiz-adv-x="1000" />

<glyph glyph-name="halflings-pro-circle-plus" unicode="&#xe82f;" d="M500 750a400 400 0 1 1 400-400 400 400 0 0 1-400 400z m200-425a25 25 0 0 0-25-25h-125v-125a25 25 0 0 0-25-25h-50a25 25 0 0 0-25 25v125h-125a25 25 0 0 0-25 25v50a25 25 0 0 0 25 25h125v125a25 25 0 0 0 25 25h50a25 25 0 0 0 25-25v-125h125a25 25 0 0 0 25-25z" horiz-adv-x="1000" />

<glyph glyph-name="halflings-pro-circle-question" unicode="&#xe830;" d="M498 750a400 400 0 1 1 400-400 400 400 0 0 1-400 400z m52-575a25 25 0 0 0-25-25h-50a25 25 0 0 0-25 25v50a25 25 0 0 0 25 25h50a25 25 0 0 0 25-25z m31 185s-31-14-31-35a24 24 0 0 0-25-25h-50a25 25 0 0 0-25 25v19a100 100 0 0 0 55 90l31 15a25 25 0 0 1 14 22 26 26 0 0 1-25 29h-50a25 25 0 0 1-25-25 25 25 0 0 0-25-25h-50a25 25 0 0 0-25 25 125 125 0 0 0 125 125h46a127 127 0 0 0 60-240z" horiz-adv-x="1000" />

<glyph glyph-name="halflings-pro-circle-remove" unicode="&#xe831;" d="M500 750a400 400 0 1 1 400-400 400 400 0 0 1-400 400z m159-488a25 25 0 0 0 0-36l-35-35a25 25 0 0 0-36 0l-88 88-88-88a25 25 0 0 0-36 0l-35 35a25 25 0 0 0 0 36l88 88-88 88a25 25 0 0 0 0 36l35 35a25 25 0 0 0 36 0l88-88 88 88a25 25 0 0 0 36 0l35-35a25 25 0 0 0 0-36l-88-88z" horiz-adv-x="1000" />

<glyph glyph-name="halflings-pro-circle-right" unicode="&#xe832;" d="M500 750a400 400 0 1 1 400-400 400 400 0 0 1-400 400z m221-420l-182-127a25 25 0 0 0-39 20v77h-175a25 25 0 0 0-25 25v50a25 25 0 0 0 25 25h175v77a25 25 0 0 0 39 21l182-127a25 25 0 0 0 0-41z" horiz-adv-x="1000" />

<glyph glyph-name="halflings-pro-circle-selected" unicode="&#xe833;" d="M700 350a200 200 0 1 0-200 200 200 200 0 0 0 200-200z m200 0a400 400 0 1 0-400 400 401 401 0 0 0 400-400z m-100 0a300 300 0 1 1-300-300 300 300 0 0 1 300 300z" horiz-adv-x="1000" />

<glyph glyph-name="halflings-pro-circle-up" unicode="&#xe834;" d="M500 750a400 400 0 1 1 400-400 400 400 0 0 1-400 400z m127-400h-77v-175a25 25 0 0 0-25-25h-50a25 25 0 0 0-25 25v175h-77a25 25 0 0 0-20 39l127 182a25 25 0 0 0 41 0l127-182a25 25 0 0 0-21-39z" horiz-adv-x="1000" />

<glyph glyph-name="halflings-pro-clock" unicode="&#xe835;" d="M550 500v-150a50 50 0 0 0-50-50h-100a50 50 0 0 0 0 100h50v100a50 50 0 0 0 100 0z m350-150a400 400 0 1 0-400 400 401 401 0 0 0 400-400z m-100 0a300 300 0 1 1-300-300 300 300 0 0 1 300 300z" horiz-adv-x="1000" />

<glyph glyph-name="halflings-pro-cloud" unicode="&#xe836;" d="M688 511a304 304 0 0 1-352 178 314 314 0 0 1-217-207 261 261 0 0 1-12-132 202 202 0 0 1-74-286 146 146 0 0 1 123-64h602a143 143 0 0 1 85 27 265 265 0 0 1 107 214 271 271 0 0 1-262 270z m100-401a48 48 0 0 0-30-10h-601a49 49 0 0 0-44 26 103 103 0 0 0-8 74 105 105 0 0 0 76 72l22 6a25 25 0 0 1 18 32l-8 25a174 174 0 0 0-3 106 209 209 0 0 0 141 149 204 204 0 0 0 254-144l5-21a25 25 0 0 1 27-19l29 4 21 1a171 171 0 0 0 163-170 168 168 0 0 0-62-131z" horiz-adv-x="1000" />

<glyph glyph-name="halflings-pro-cloud-off" unicode="&#xe837;" d="M950 241a265 265 0 0 0-107-214 143 143 0 0 0-85-27h-470l100 100h370a48 48 0 0 1 30 10 168 168 0 0 1 62 131 170 170 0 0 1-152 169l81 81a270 270 0 0 0 171-250z m-815-259a50 50 0 0 0-80 56 131 131 0 0 0-22 26 202 202 0 0 0 74 286 261 261 0 0 0 12 132 314 314 0 0 0 217 207 301 301 0 0 0 285-80l176 176a50 50 0 1 0 71-70z m415 556a202 202 0 0 1-199 52 209 209 0 0 1-141-149 174 174 0 0 1 3-106l8-25a25 25 0 0 0-18-32l-22-6a105 105 0 0 1-76-72 103 103 0 0 1 8-74 46 46 0 0 1 11-14z" horiz-adv-x="1000" />

<glyph glyph-name="halflings-pro-code" unicode="&#xe838;" d="M300 524v-73a25 25 0 0 0-14-22l-157-79 157-79a25 25 0 0 0 14-22v-73a25 25 0 0 0-36-22l-250 125a25 25 0 0 0-14 22v98a25 25 0 0 0 14 22l250 125a25 25 0 0 0 36-22z m354 176h-69a25 25 0 0 1-24-17l-229-650a25 25 0 0 1 24-33h69a25 25 0 0 1 23 17l230 650a25 25 0 0 1-24 33z m332-279l-250 125a25 25 0 0 1-36-22v-73a25 25 0 0 1 14-22l157-79-157-79a25 25 0 0 1-14-22v-73a25 25 0 0 1 36-22l250 125a25 25 0 0 1 14 22v98a25 25 0 0 1-14 22z" horiz-adv-x="1000" />

<glyph glyph-name="halflings-pro-coffee-mug" unicode="&#xe839;" d="M848 22l-48-72h-600l-48 72a50 50 0 0 0 41 78h614a50 50 0 0 0 41-78z m102 528v-150a50 50 0 0 0-28-45l-189-95a252 252 0 0 0-34-60h-448a248 248 0 0 0-51 150v275a75 75 0 0 0 75 75h400a75 75 0 0 0 75-75v-25h150a50 50 0 0 0 50-50z m-100-50h-100v-119l100 50z" horiz-adv-x="1000" />

<glyph glyph-name="halflings-pro-cogwheel" unicode="&#xe83a;" d="M899 383a25 25 0 0 1-19 23l-88 23a309 309 0 0 1-30 72l47 79a25 25 0 0 1-2 29 411 411 0 0 1-48 48 25 25 0 0 1-29 2l-79-47a303 303 0 0 1-73 30l-22 89a25 25 0 0 1-23 19c-19 0-47 0-66 0a25 25 0 0 1-23-19l-22-89a304 304 0 0 1-73-30l-79 47a25 25 0 0 1-28-2 408 408 0 0 1-49-48 25 25 0 0 1-2-29l47-79a305 305 0 0 1-30-72l-88-23a25 25 0 0 1-19-23c-1-19-1-46 0-66a25 25 0 0 1 19-23l88-22a304 304 0 0 1 30-73l-47-78a25 25 0 0 1 2-29 408 408 0 0 1 48-48 25 25 0 0 1 30-3l78 47a308 308 0 0 1 73-30l22-88a25 25 0 0 1 23-19c20-1 47-1 66 0a25 25 0 0 1 23 19l22 88a309 309 0 0 1 73 31l79-48a25 25 0 0 1 29 2 411 411 0 0 1 48 49 25 25 0 0 1 2 29l-47 78a317 317 0 0 1 30 73l88 22a25 25 0 0 1 19 24c1 19 1 46 0 65z m-399-183a150 150 0 1 0 150 150 151 151 0 0 0-150-150z" horiz-adv-x="1000" />

<glyph glyph-name="halflings-pro-compass" unicode="&#xe83b;" d="M634 453l-51-154a50 50 0 0 0-32-32l-154-51a25 25 0 0 0-31 31l51 154a50 50 0 0 0 32 32l154 51a25 25 0 0 0 31-31z m266-103a400 400 0 1 0-400 400 401 401 0 0 0 400-400z m-100 0a300 300 0 1 1-300-300 300 300 0 0 1 300 300z" horiz-adv-x="1000" />

<glyph glyph-name="halflings-pro-compound" unicode="&#xe83c;" d="M925 331l-175 98v209a50 50 0 0 1-25 43l-200 113a50 50 0 0 1-49 0l-200-113a50 50 0 0 1-26-43v-209l-174-98a50 50 0 0 1-26-43v-225a50 50 0 0 1 26-44l200-113a50 50 0 0 1 49 0l175 99 176-99a50 50 0 0 1 49 0l200 113a50 50 0 0 1 25 44v225a50 50 0 0 1-25 43z m-575 277l150 85 150-85v-166l-150-85-150 85z m-50-601l-150 85v166l150 85 150-85v-166z m550 85l-150-85-150 85v166l150 85 150-85z" horiz-adv-x="1000" />

<glyph glyph-name="halflings-pro-computer" unicode="&#xe83d;" d="M850 250h-50v400a50 50 0 0 1-50 50h-500a50 50 0 0 1-50-50v-400h-50a50 50 0 0 1-50-50v-200a50 50 0 0 1 50-50h700a50 50 0 0 1 50 50v200a50 50 0 0 1-50 50z m-550 350h400v-300h-400z m500-525a25 25 0 0 0-25-25h-50a25 25 0 0 0-25 25v50a25 25 0 0 0 25 25h50a25 25 0 0 0 25-25z" horiz-adv-x="1000" />

<glyph glyph-name="halflings-pro-construction-cone" unicode="&#xe83e;" d="M724 300h-448l50 150h349z m-138 416a50 50 0 0 1-47 34h-78a50 50 0 0 1-47-34l-55-166h282z m264-666h-43l-49 150h-515l-50-150h-43a50 50 0 0 1 0-100h700a50 50 0 0 1 0 100z" horiz-adv-x="1000" />

<glyph glyph-name="halflings-pro-contrast" unicode="&#xe83f;" d="M500 750a400 400 0 1 1 400-400 401 401 0 0 1-400 400z m0-700a300 300 0 0 0 0 600z" horiz-adv-x="1000" />

<glyph glyph-name="halflings-pro-copy-duplicate" unicode="&#xe840;" d="M550 600h-125a25 25 0 0 0-25 25v125z m-250-50v175a25 25 0 0 1-25 25h-125a50 50 0 0 1-50-50v-450a50 50 0 0 1 50-50h200v250a148 148 0 0 0 9 50h-9a50 50 0 0 0-50 50z m475-200h125l-150 150v-125a25 25 0 0 1 25-25z m-125-50v175a25 25 0 0 1-25 25h-125a50 50 0 0 1-50-50v-450a50 50 0 0 1 50-50h350a50 50 0 0 1 50 50v225a25 25 0 0 1-25 25h-175a50 50 0 0 0-50 50z" horiz-adv-x="1000" />

<glyph glyph-name="halflings-pro-credit-card" unicode="&#xe841;" d="M100 100a50 50 0 0 1 50-50h700a50 50 0 0 1 50 50v300h-800z m500 125a25 25 0 0 0 25 25h150a25 25 0 0 0 25-25v-50a25 25 0 0 0-25-25h-150a25 25 0 0 0-25 25z m300 375v-50h-800v50a50 50 0 0 0 50 50h700a50 50 0 0 0 50-50z" horiz-adv-x="1000" />

<glyph glyph-name="halflings-pro-credit-card-off" unicode="&#xe842;" d="M338 50h512a50 50 0 0 1 50 50v300h-212z m462 175v-50a25 25 0 0 0-25-25h-150a25 25 0 0 0-25 25v50a25 25 0 0 0 25 25h150a25 25 0 0 0 25-25z m100 375v-50h-62l60 60a48 48 0 0 0 2-10z m-32 115l-733-733a50 50 0 0 0-70 71l37 37a48 48 0 0 0-2 10v300h312l150 150h-462v50a50 50 0 0 0 50 50h512l135 135a50 50 0 1 0 71-70z" horiz-adv-x="1000" />

<glyph glyph-name="halflings-pro-crown" unicode="&#xe843;" d="M250 50h500v-50a50 50 0 0 0-50-50h-400a50 50 0 0 0-50 50z m600 550h-50a50 50 0 0 1-50-50v-50a47 47 0 0 1 7-24 25 25 0 0 0-9-35l-96-56-103 248a25 25 0 0 0 7 29 49 49 0 0 1 19 38v50a50 50 0 0 1-50 50h-50a50 50 0 0 1-50-50v-50a49 49 0 0 1 19-38 25 25 0 0 0 7-29l-103-248-96 56a25 25 0 0 0-9 35 47 47 0 0 1 7 24v50a50 50 0 0 1-50 50h-50a50 50 0 0 1-50-50v-50a50 50 0 0 1 50-50 19 19 0 0 0 18-14l82-286h500l82 286a19 19 0 0 0 18 14 50 50 0 0 1 50 50v50a50 50 0 0 1-50 50z" horiz-adv-x="1000" />

<glyph glyph-name="halflings-pro-cutlery" unicode="&#xe844;" d="M450 700v-189a200 200 0 0 0-34-111l-49-75a100 100 0 0 1-17-55v-270a50 50 0 0 0-100 0v270a100 100 0 0 1-17 55l-49 75a200 200 0 0 0-34 111v189a50 50 0 0 0 100 0v-150a50 50 0 0 1 100 0v150a50 50 0 0 0 100 0z m325 50h-125a100 100 0 0 1-100-100v-350a50 50 0 0 1 50-50h75a25 25 0 0 0 25-25v-225a50 50 0 0 1 100 0v725a25 25 0 0 1-25 25z" horiz-adv-x="1000" />

<glyph glyph-name="halflings-pro-dashboard" unicode="&#xe845;" d="M900 350a397 397 0 0 0-117-282 50 50 0 0 0-71 0 47 47 0 0 0-5 6 47 47 0 0 0-7 5l-59 59a50 50 0 0 0 71 71l32-32a296 296 0 0 1 52 123h-46a50 50 0 0 0 0 100h46a298 298 0 0 1-52 124l-32-33a50 50 0 0 0-71 71l33 32a298 298 0 0 1-124 52v-46a50 50 0 0 0-100 0v46a298 298 0 0 1-124-52l209-209a50 50 0 1 0-70-70l-209 209a298 298 0 0 1-51-124h45a50 50 0 0 0 0-100h-45a296 296 0 0 1 51-123l32 32a50 50 0 0 0 71-71l-59-59a47 47 0 0 0-7-5 47 47 0 0 0-5-6 50 50 0 0 0-70 0 400 400 0 1 0 682 282z" horiz-adv-x="1000" />

<glyph glyph-name="halflings-pro-database" unicode="&#xe846;" d="M892 175a49 49 0 0 0 8-25v-50c0-131-251-150-400-150s-400 19-400 150v50a49 49 0 0 0 8 25c74-44 196-75 392-75s318 31 392 75z m-392 175c-196 0-318 31-392 75a49 49 0 0 1-8-25v-50c0-130 251-150 400-150s400 20 400 150v50a49 49 0 0 1-8 25c-74-44-196-75-392-75z m0 100c149 0 400 20 400 150s-251 150-400 150-400-19-400-150 251-150 400-150z" horiz-adv-x="1000" />

<glyph glyph-name="halflings-pro-dice" unicode="&#xe847;" d="M750 700h-550a100 100 0 0 1-100-100v-550a100 100 0 0 1 100-100h550a100 100 0 0 1 100 100v550a100 100 0 0 1-100 100z m-475-650a75 75 0 1 0 75 75 75 75 0 0 0-75-75z m0 400a75 75 0 1 0 75 75 75 75 0 0 0-75-75z m200-200a75 75 0 1 0 75 75 75 75 0 0 0-75-75z m200-200a75 75 0 1 0 75 75 75 75 0 0 0-75-75z m0 400a75 75 0 1 0 75 75 75 75 0 0 0-75-75z" horiz-adv-x="1000" />

<glyph glyph-name="halflings-pro-direction" unicode="&#xe848;" d="M849 667l-292-669a25 25 0 0 0-48 5l-59 297-297 59a25 25 0 0 0-5 48l669 292a25 25 0 0 0 32-32z" horiz-adv-x="1000" />

<glyph glyph-name="halflings-pro-disappearing" unicode="&#xe849;" d="M950 400v-300a50 50 0 0 0-50-50h-300a50 50 0 0 0-50 50v50a50 50 0 0 0 50 50h94l-194 194-115-115a50 50 0 0 0-70 0l-233 233a50 50 0 0 0 0 70l36 36a50 50 0 0 0 70 0l162-162 115 115a50 50 0 0 0 70 0l265-265v94a50 50 0 0 0 50 50h50a50 50 0 0 0 50-50z" horiz-adv-x="1000" />

<glyph glyph-name="halflings-pro-division" unicode="&#xe84a;" d="M850 400v-100a50 50 0 0 0-50-50h-600a50 50 0 0 0-50 50v100a50 50 0 0 0 50 50h600a50 50 0 0 0 50-50z m-400 150h100a50 50 0 0 1 50 50v100a50 50 0 0 1-50 50h-100a50 50 0 0 1-50-50v-100a50 50 0 0 1 50-50z m100-400h-100a50 50 0 0 1-50-50v-100a50 50 0 0 1 50-50h100a50 50 0 0 1 50 50v100a50 50 0 0 1-50 50z" horiz-adv-x="1000" />

<glyph glyph-name="halflings-pro-drop" unicode="&#xe84b;" d="M542 744a50 50 0 0 1-88 0c-108-209-254-322-254-489a292 292 0 0 1 298-298 292 292 0 0 1 297 298c0 167-145 280-253 489z m-45-305c-30-44-54-80-69-105a50 50 0 0 0-86 50c20 35 51 80 73 112a50 50 0 1 0 82-57z" horiz-adv-x="1000" />

<glyph glyph-name="halflings-pro-drop-off" unicode="&#xe84c;" d="M733 445a363 363 0 0 0 62-190 292 292 0 0 0-297-298 300 300 0 0 0-188 64z m135 340a50 50 0 0 1-71 0l-175-175a1335 1335 0 0 0-80 134 50 50 0 0 1-88 0c-108-209-254-322-254-489a312 312 0 0 1 7-60l-142-142a50 50 0 1 1 70-71l733 733a50 50 0 0 1 0 70z" horiz-adv-x="1000" />

<glyph glyph-name="halflings-pro-education" unicode="&#xe84d;" d="M1000 487v-63a25 25 0 0 0-16-23l-447-176a100 100 0 0 0-74 0l-447 176a25 25 0 0 0-16 23v63a25 25 0 0 0 16 23l447 176a100 100 0 0 0 74 0l447-176a25 25 0 0 0 16-23z m-537-362l-263 104v-183a25 25 0 0 1 16-24l247-97a100 100 0 0 1 74 0l247 97a25 25 0 0 1 16 24v183l-263-104a100 100 0 0 0-74 0z" horiz-adv-x="1000" />

<glyph glyph-name="halflings-pro-eject" unicode="&#xe84e;" d="M214 315l255 320a40 40 0 0 0 62 0l256-320a40 40 0 0 0-32-65h-510a40 40 0 0 0-31 65z m536-165h-500a50 50 0 0 1 0-100h500a50 50 0 0 1 0 100z" horiz-adv-x="1000" />

<glyph glyph-name="halflings-pro-email" unicode="&#xe84f;" d="M600 750h-100a400 400 0 0 1 0-800h150a248 248 0 0 1 177 73 50 50 0 0 1-71 71 149 149 0 0 0-106-44h-150a300 300 0 0 0 0 600h100a200 200 0 0 0 200-200v-150a50 50 0 0 0-100 0v200a50 50 0 0 1-86 35 148 148 0 0 1-64 15h-50a200 200 0 0 1 0-400h50a149 149 0 0 1 100 39 149 149 0 0 1 250 111v150a300 300 0 0 1-300 300z m0-450a50 50 0 0 0-50-50h-50a100 100 0 0 0 0 200h50a50 50 0 0 0 50-50z" horiz-adv-x="1000" />

<glyph glyph-name="halflings-pro-envelope" unicode="&#xe850;" d="M436 315l-336 335 800 0-335-335a50 50 0 0 0-36-15h-58a50 50 0 0 0-35 15z m-336 193v-316l158 158z m521-279a100 100 0 0 0-71-29h-100a100 100 0 0 0-70 29l-51 51-229-229 800-1-229 229z m120 121l159-159v318z" horiz-adv-x="1000" />

<glyph glyph-name="halflings-pro-equals" unicode="&#xe851;" d="M850 550v-100a50 50 0 0 0-50-50h-600a50 50 0 0 0-50 50v100a50 50 0 0 0 50 50h600a50 50 0 0 0 50-50z m-50-250h-600a50 50 0 0 1-50-50v-100a50 50 0 0 1 50-50h600a50 50 0 0 1 50 50v100a50 50 0 0 1-50 50z" horiz-adv-x="1000" />

<glyph glyph-name="halflings-pro-eraser" unicode="&#xe852;" d="M401 50l100-100h-251a50 50 0 0 0 0 100z m528 139l-218-218a81 81 0 0 0-115 0l-441 440a82 82 0 0 0 0 115l219 219a82 82 0 0 0 115 0l440-441a82 82 0 0 0 0-115z m-302 276l-196 196-192-192 196-196z" horiz-adv-x="1000" />

<glyph glyph-name="halflings-pro-exchange" unicode="&#xe853;" d="M400 250h100v-200h-100v-53a50 50 0 0 0-79-41l-214 153a50 50 0 0 0 0 82l214 153a50 50 0 0 0 79-41z m-50 200h50v200h-50a50 50 0 0 1-50-50v-100a50 50 0 0 1 50-50z m543 141l-214 153a50 50 0 0 1-79-41v-53h-100v-200h100v-53a50 50 0 0 1 79-40l214 152a50 50 0 0 1 0 82z m-243-341h-50v-200h50a50 50 0 0 1 50 50v100a50 50 0 0 1-50 50z" horiz-adv-x="1000" />

<glyph glyph-name="halflings-pro-eye" unicode="&#xe854;" d="M650 350a150 150 0 1 0-150 150 150 150 0 0 0 150-150z m299 40c-34 73-167 310-449 310s-415-237-449-310a99 99 0 0 1 0-85c34-71 168-305 449-305s412 230 449 305a99 99 0 0 1 0 85z m-449-290c-223 0-331 190-359 247 28 60 136 253 359 253 222 0 330-192 358-252-28-59-136-248-358-248z" horiz-adv-x="1000" />

<glyph glyph-name="halflings-pro-eye-off" unicode="&#xe855;" d="M489 201l160 160c0-4 1-7 1-11a150 150 0 0 0-150-150c-4 0-7 1-11 1z m460 189a627 627 0 0 1-110 161l-71-71a522 522 0 0 0 90-132c-28-59-136-248-358-248a359 359 0 0 0-98 14l-79-79a454 454 0 0 1 177-35c281 0 430 249 449 305a102 102 0 0 1 0 85z m-81 325l-733-733a50 50 0 0 0-70 71l95 95a618 618 0 0 0-109 157 99 99 0 0 0 0 85c34 73 167 310 449 310a448 448 0 0 0 177-35l120 120a50 50 0 1 0 71-70z m-270-129a350 350 0 0 1-98 14c-223 0-331-193-359-253a519 519 0 0 1 90-128l120 120c0 4-1 7-1 11a150 150 0 0 0 150 150c4 0 7-1 11-1z" horiz-adv-x="1000" />

<glyph glyph-name="halflings-pro-fan" unicode="&#xe856;" d="M900 427v-80a100 100 0 0 0-188-48 108 108 0 0 1-102 57 25 25 0 0 1-18-41l99-118a150 150 0 0 0-114-247h-80a100 100 0 0 0-48 188 108 108 0 0 1 57 102 25 25 0 0 1-41 19l-118-100a150 150 0 0 0-247 114v80a100 100 0 0 0 188 48 108 108 0 0 1 102-57 25 25 0 0 1 19 41l-100 118a150 150 0 0 0 114 247h80a100 100 0 0 0 48-188 108 108 0 0 1-57-102 25 25 0 0 1 41-18l118 99a150 150 0 0 0 247-114z" horiz-adv-x="1000" />

<glyph glyph-name="halflings-pro-file" unicode="&#xe857;" d="M600 400h225a25 25 0 0 0 25-25v-375a50 50 0 0 0-50-50h-550a50 50 0 0 0-50 50v650a50 50 0 0 0 50 50h275a25 25 0 0 0 25-25v-225a50 50 0 0 1 50-50z m75 100h175l-200 200v-175a25 25 0 0 1 25-25z" horiz-adv-x="1000" />

<glyph glyph-name="halflings-pro-filter" unicode="&#xe858;" d="M850 700v-34a50 50 0 0 0-9-29l-241-337v-210a50 50 0 0 0-18-38l-141-118a25 25 0 0 0-41 19v347l-241 337a50 50 0 0 0-9 29v34a50 50 0 0 0 50 50h600a50 50 0 0 0 50-50z" horiz-adv-x="1000" />

<glyph glyph-name="halflings-pro-filter-off" unicode="&#xe859;" d="M581 293l7 7c6 6 12 4 12-3v-207a50 50 0 0 0-18-38l-141-118a25 25 0 0 0-41 19v159z m287 422a55 55 0 0 1 7 10 49 49 0 0 1-7 60 50 50 0 0 1-71 0l-35-35h-562a50 50 0 0 1-50-50v-34a50 50 0 0 1 9-29l204-286-298-298a50 50 0 1 1 70-71z" horiz-adv-x="1000" />

<glyph glyph-name="halflings-pro-fire" unicode="&#xe85a;" d="M315 88c-248 212-24 485 188 652a12 12 0 0 0 18-5c64-162 225-306 225-475a275 275 0 0 0-121-230 25 25 0 0 0-39 30c58 122 13 237-108 311a13 13 0 0 1-14 0c-89-55-159-124-109-254a25 25 0 0 0-40-29z" horiz-adv-x="1000" />

<glyph glyph-name="halflings-pro-flag" unicode="&#xe85b;" d="M850 650v-350a50 50 0 0 0-50-50h-450v-250a50 50 0 0 0-100 0v700a50 50 0 0 0 100 0h450a50 50 0 0 0 50-50z" horiz-adv-x="1000" />

<glyph glyph-name="halflings-pro-flag-triangle" unicode="&#xe85c;" d="M852 427l-502-161v-266a50 50 0 0 0-100 0v700a50 50 0 0 0 100 0v-16l502-161a50 50 0 0 0 0-96z" horiz-adv-x="1000" />

<glyph glyph-name="halflings-pro-flash" unicode="&#xe85d;" d="M832 368l-331-396a50 50 0 0 0-88 36l20 242h-226a50 50 0 0 0-39 82l331 396a50 50 0 0 0 88-36l-20-242h226a50 50 0 0 0 39-82z" horiz-adv-x="1000" />

<glyph glyph-name="halflings-pro-folder" unicode="&#xe85e;" d="M100 450h800v-400a100 100 0 0 0-100-100h-600a100 100 0 0 0-100 100z m700 200h-300l-71 71a100 100 0 0 1-70 29h-159a100 100 0 0 1-100-100v-100h800a100 100 0 0 1-100 100z" horiz-adv-x="1000" />

<glyph glyph-name="halflings-pro-folder-open" unicode="&#xe85f;" d="M988 390l-88-440h-800l92 460a50 50 0 0 0 49 40h698a50 50 0 0 0 49-60z m-747 160h659a100 100 0 0 1-100 100h-300l-71 71a100 100 0 0 1-70 29h-159a100 100 0 0 1-100-100v-200a150 150 0 0 0 141 100z" horiz-adv-x="1000" />

<glyph glyph-name="halflings-pro-forward" unicode="&#xe860;" d="M481 385a42 42 0 0 0 0-70l-317-203a42 42 0 0 0-64 36v405a42 42 0 0 0 64 35z m400 0l-317 203a42 42 0 0 1-64-35v-405a42 42 0 0 1 64-36l317 203a42 42 0 0 1 0 70z" horiz-adv-x="1000" />

<glyph glyph-name="halflings-pro-fullscreen" unicode="&#xe861;" d="M443 478a25 25 0 0 0 0-35l-36-36a25 25 0 0 0-35 0l-170 170-59-59a25 25 0 0 0-43 17v190a25 25 0 0 0 25 25h190a25 25 0 0 0 17-43l-59-59z m414-296l-59-59-170 170a25 25 0 0 1-35 0l-36-36a25 25 0 0 1 0-35l170-170-59-59a25 25 0 0 1 17-43h190a25 25 0 0 1 25 25v190a25 25 0 0 1-43 17z m18 568h-190a25 25 0 0 1-17-43l59-59-170-170a25 25 0 0 1 0-35l36-36a25 25 0 0 1 35 0l170 170 59-59a25 25 0 0 1 43 17v190a25 25 0 0 1-25 25z m-468-457a25 25 0 0 1-35 0l-170-170-59 59a25 25 0 0 1-43-17v-190a25 25 0 0 1 25-25h190a25 25 0 0 1 17 43l-59 59 170 170a25 25 0 0 1 0 35z" horiz-adv-x="1000" />

<glyph glyph-name="halflings-pro-fullscreen-off" unicode="&#xe862;" d="M450 615v-190a25 25 0 0 0-25-25h-190a25 25 0 0 0-17 43l59 59-120 120a25 25 0 0 0 0 35l36 36a25 25 0 0 0 35 0l120-120 59 59a25 25 0 0 0 43-17z m125-215h190a25 25 0 0 1 17 43l-59 59 120 120a25 25 0 0 1 0 35l-36 36a25 25 0 0 1-35 0l-120-120-59 59a25 25 0 0 1-43-17v-190a25 25 0 0 1 25-25z m148-202l59 59a25 25 0 0 1-17 43h-190a25 25 0 0 1-25-25v-190a25 25 0 0 1 43-17l59 59 120-120a25 25 0 0 1 35 0l36 36a25 25 0 0 1 0 35z m-298 102h-190a25 25 0 0 1-17-43l59-59-120-120a25 25 0 0 1 0-35l36-36a25 25 0 0 1 35 0l120 120 59-59a25 25 0 0 1 43 17v190a25 25 0 0 1-25 25z" horiz-adv-x="1000" />

<glyph glyph-name="halflings-pro-gift" unicode="&#xe863;" d="M850 550h-51a99 99 0 0 1 7 161l-84 67a100 100 0 0 1-150-30l-65-116a112 112 0 0 1-7-16 112 112 0 0 1-7 16l-65 116a100 100 0 0 1-150 30l-84-67a99 99 0 0 1 7-161h-51a50 50 0 0 1-50-50v-100h350v100h100v-100h350v100a50 50 0 0 1-50 50z m-456 15a13 13 0 0 0-5 1l-115 58a13 13 0 0 0-2 21l57 46a12 12 0 0 0 11 2 14 14 0 0 0 8-6l57-104a13 13 0 0 0-11-18z m332 59l-115-58a13 13 0 0 0-16 17l58 104a14 14 0 0 0 7 6 12 12 0 0 0 11-2l58-46a13 13 0 0 0-3-21z m-576-324h300v-350h-250a50 50 0 0 0-50 50z m400 0h300v-300a50 50 0 0 0-50-50h-250z" horiz-adv-x="1000" />

<glyph glyph-name="halflings-pro-globe" unicode="&#xe864;" d="M500 750a400 400 0 1 1 400-400 401 401 0 0 1-400 400z m259-250h-78a496 496 0 0 1-48 118 302 302 0 0 0 126-118z m-259 133a359 359 0 0 0 77-133h-154a359 359 0 0 0 77 133z m-295-333a279 279 0 0 0 0 100h97c-1-16-2-33-2-50s1-34 2-50z m36-100h78a496 496 0 0 1 48-118 302 302 0 0 0-126 118z m78 300h-78a302 302 0 0 0 126 118 496 496 0 0 1-48-118z m181-433a359 359 0 0 0-77 133h154a359 359 0 0 0-77-133z m97 233h-194c-2 16-3 32-3 50s1 34 3 50h194c2-16 3-32 3-50s-1-34-3-50z m36-218a496 496 0 0 1 48 118h78a302 302 0 0 0-126-118z m65 218c1 16 2 33 2 50s-1 34-2 50h98a279 279 0 0 0 0-100z" horiz-adv-x="1000" />

<glyph glyph-name="halflings-pro-hard-drive" unicode="&#xe865;" d="M750 250h-500a100 100 0 0 1-100-100v-50a150 150 0 0 1 150-150h400a150 150 0 0 1 150 150v50a100 100 0 0 1-100 100z m0-175a25 25 0 0 0-25-25h-100a25 25 0 0 0-25 25v50a25 25 0 0 0 25 25h100a25 25 0 0 0 25-25z m100 525v-278a198 198 0 0 1-100 28h-500a198 198 0 0 1-100-28v278a150 150 0 0 0 150 150h400a150 150 0 0 0 150-150z" horiz-adv-x="1000" />

<glyph glyph-name="halflings-pro-hash" unicode="&#xe866;" d="M800 550h-62l16 91a50 50 0 0 1-49 59h-51a50 50 0 0 1-49-41l-20-109h-147l16 91a50 50 0 0 1-49 59h-51a50 50 0 0 1-49-41l-20-109h-76a50 50 0 0 1-49-41l-9-50a50 50 0 0 1 49-59h58l-27-150h-76a50 50 0 0 1-49-41l-9-50a50 50 0 0 1 49-59h57l-16-91a50 50 0 0 1 49-59h51a50 50 0 0 1 49 41l20 109h147l-16-91a50 50 0 0 1 49-59h51a50 50 0 0 1 49 41l20 109h81a50 50 0 0 1 49 41l9 50a50 50 0 0 1-49 59h-63l27 150h81a50 50 0 0 1 49 41l9 50a50 50 0 0 1-49 59z m-269-300h-148l27 150h148z" horiz-adv-x="1000" />

<glyph glyph-name="halflings-pro-header" unicode="&#xe867;" d="M800 600v-500h50a50 50 0 0 0 50-50v-50a50 50 0 0 0-50-50h-250a50 50 0 0 0-50 50v50a50 50 0 0 0 50 50h50v200h-300v-200h50a50 50 0 0 0 50-50v-50a50 50 0 0 0-50-50h-250a50 50 0 0 0-50 50v50a50 50 0 0 0 50 50h50v500h-50a50 50 0 0 0-50 50v50a50 50 0 0 0 50 50h250a50 50 0 0 0 50-50v-50a50 50 0 0 0-50-50h-50v-200h300v200h-50a50 50 0 0 0-50 50v50a50 50 0 0 0 50 50h250a50 50 0 0 0 50-50v-50a50 50 0 0 0-50-50z" horiz-adv-x="1000" />

<glyph glyph-name="halflings-pro-headphones" unicode="&#xe868;" d="M900 350v-272a100 100 0 0 0-76-97l-62-16a50 50 0 0 0-62 49v222a50 50 0 0 0 62 49l38-10v75a300 300 0 0 1-600 0v-75l38 10a50 50 0 0 0 62-49v-222a50 50 0 0 0-62-49l-62 16a100 100 0 0 0-76 97v272a400 400 0 0 0 800 0z" horiz-adv-x="1000" />

<glyph glyph-name="halflings-pro-heart" unicode="&#xe869;" d="M887 479c0-155-192-280-351-450a50 50 0 0 0-72 0c-159 170-351 295-351 450 0 176 234 304 369 140a24 24 0 0 1 37 0c141 165 368 37 368-140z" horiz-adv-x="1000" />

<glyph glyph-name="halflings-pro-heart-empty" unicode="&#xe86a;" d="M519 619a24 24 0 0 0-37 0c-135 164-369 36-369-140 0-155 192-280 351-450a50 50 0 0 1 72 0c159 170 351 295 351 450 0 177-227 305-368 140z m72-382c-21-19-42-39-63-60a40 40 0 0 0-56 0c-21 21-42 41-63 60-96 91-186 176-186 242a113 113 0 0 0 107 106 205 205 0 0 0 123-67l24-22a34 34 0 0 1 46 1l23 20a207 207 0 0 0 124 68 113 113 0 0 0 107-106c0-66-90-151-186-242z" horiz-adv-x="1000" />

<glyph glyph-name="halflings-pro-home" unicode="&#xe86b;" d="M844 300h-94v-350h-150v175a25 25 0 0 1-25 25h-150a25 25 0 0 1-25-25v-175h-150v350h-94a25 25 0 0 0-19 42l344 387a25 25 0 0 0 38 0l344-387a25 25 0 0 0-19-42z" horiz-adv-x="1000" />

<glyph glyph-name="halflings-pro-hourglass" unicode="&#xe86c;" d="M800 525v125a100 100 0 0 1-100 100h-400a100 100 0 0 1-100-100v-125a101 101 0 0 1 40-80l127-95-127-95a100 100 0 0 1-40-80v-125a100 100 0 0 1 100-100h400a100 100 0 0 1 100 100v125a101 101 0 0 1-40 80l-127 95 127 95a100 100 0 0 1 40 80z m-100 0l-127-95a100 100 0 0 1 0-160l127-95v-125h-45l-118 132a50 50 0 0 1-74 0l-118-132h-45v125l127 95a100 100 0 0 1 0 160l-127 95v125h400z" horiz-adv-x="1000" />

<glyph glyph-name="halflings-pro-inbox" unicode="&#xe86d;" d="M800 750h-600a100 100 0 0 1-100-100v-600a100 100 0 0 1 100-100h600a100 100 0 0 1 100 100v600a100 100 0 0 1-100 100z m-132-450a25 25 0 0 1-24-17l-38-116a25 25 0 0 0-24-17h-164a25 25 0 0 0-24 17l-38 116a25 25 0 0 1-24 17h-132v350h600l0-350z" horiz-adv-x="1000" />

<glyph glyph-name="halflings-pro-initial-letter" unicode="&#xe86e;" d="M900 400v-50a50 50 0 0 0-50-50h-250a50 50 0 0 0-50 50v50a50 50 0 0 0 50 50h250a50 50 0 0 0 50-50z m-50-200h-650a50 50 0 0 1-50-50v-50a50 50 0 0 1 50-50h650a50 50 0 0 1 50 50v50a50 50 0 0 1-50 50z m0 500h-250a50 50 0 0 1-50-50v-50a50 50 0 0 1 50-50h250a50 50 0 0 1 50 50v50a50 50 0 0 1-50 50z m-408-396a50 50 0 0 0-65 27l-29 69h-96l-29-69a50 50 0 0 0-92 38l123 295a50 50 0 0 0 92 0l123-295a50 50 0 0 0-27-65z m-125 171l-17 46-17-46z" horiz-adv-x="1000" />

<glyph glyph-name="halflings-pro-italic" unicode="&#xe86f;" d="M750 700v-50a50 50 0 0 0-50-50h-66l-84-500h50a50 50 0 0 0 50-50v-50a50 50 0 0 0-50-50h-250a50 50 0 0 0-50 50v50a50 50 0 0 0 50 50h48l84 500h-32a50 50 0 0 0-50 50v50a50 50 0 0 0 50 50h250a50 50 0 0 0 50-50z" horiz-adv-x="1000" />

<glyph glyph-name="halflings-pro-key" unicode="&#xe870;" d="M850 500h-350l-106 106a150 150 0 0 1-106 44h-138a100 100 0 0 1-100-100v-350a100 100 0 0 1 100-100h138a150 150 0 0 1 106 44l106 106h350l100 75v100z m-600-175a25 25 0 0 0-25-25h-50a25 25 0 0 0-25 25v100a25 25 0 0 0 25 25h50a25 25 0 0 0 25-25z" horiz-adv-x="1000" />

<glyph glyph-name="halflings-pro-layers" unicode="&#xe871;" d="M900 250a50 50 0 0 0-25-43l-350-200a50 50 0 0 0-50 0l-350 200a50 50 0 0 0 0 86l25 14 350-199 350 199 25-14a50 50 0 0 0 25-43z m-775 207l350-200a50 50 0 0 1 50 0l350 200a50 50 0 0 1 0 86l-350 200a50 50 0 0 1-50 0l-350-200a50 50 0 0 1 0-86z" horiz-adv-x="1000" />

<glyph glyph-name="halflings-pro-link" unicode="&#xe872;" d="M900 450v-200a150 150 0 0 0-150-150h-250a150 150 0 0 0-150 150v125a25 25 0 0 0 25 25h50a25 25 0 0 0 25-25v-125a50 50 0 0 1 50-50h250a50 50 0 0 1 50 50v200a50 50 0 0 1-50 50h-25a25 25 0 0 0-25 25v50a25 25 0 0 0 25 25h25a150 150 0 0 0 150-150z m-625-250h-25a50 50 0 0 0-50 50v200a50 50 0 0 0 50 50h250a50 50 0 0 0 50-50v-125a25 25 0 0 1 25-25h50a25 25 0 0 1 25 25v125a150 150 0 0 1-150 150h-250a150 150 0 0 1-150-150v-200a150 150 0 0 1 150-150h25a25 25 0 0 1 25 25v50a25 25 0 0 1-25 25z" horiz-adv-x="1000" />

<glyph glyph-name="halflings-pro-link-remove" unicode="&#xe873;" d="M950 450v-200a150 150 0 0 0-150-150h-175a25 25 0 0 0-25 25v50a25 25 0 0 0 25 25h175a50 50 0 0 1 50 50v200a50 50 0 0 1-50 50h-175a25 25 0 0 0-25 25v50a25 25 0 0 0 25 25h175a150 150 0 0 0 150-150z m-575 150h-175a150 150 0 0 1-150-150v-200a150 150 0 0 1 150-150h175a25 25 0 0 1 25 25v50a25 25 0 0 1-25 25h-175a50 50 0 0 0-50 50v200a50 50 0 0 0 50 50h175a25 25 0 0 1 25 25v50a25 25 0 0 1-25 25z m272 54a50 50 0 0 1 65 27l26 62a50 50 0 1 1-93 38l-25-62a50 50 0 0 1 27-65z m-359 27a50 50 0 1 1 93 38l-26 62a50 50 0 1 1-93-38z m212 169a50 50 0 0 1-50-50v-75a50 50 0 0 1 100 0v75a50 50 0 0 1-50 50z m0-825a50 50 0 0 1-50-50v-75a50 50 0 0 1 100 0v75a50 50 0 0 1-50 50z m-146 21a50 50 0 0 1-66-27l-26-62a50 50 0 0 1 93-38l26 62a50 50 0 0 1-27 65z m358-27a50 50 0 1 1-92-38l25-62a50 50 0 1 1 93 38z" horiz-adv-x="1000" />

<glyph glyph-name="halflings-pro-list" unicode="&#xe874;" d="M900 650v-50a50 50 0 0 0-50-50h-450a50 50 0 0 0-50 50v50a50 50 0 0 0 50 50h450a50 50 0 0 0 50-50z m-50-200h-450a50 50 0 0 1-50-50v-50a50 50 0 0 1 50-50h450a50 50 0 0 1 50 50v50a50 50 0 0 1-50 50z m0-250h-450a50 50 0 0 1-50-50v-50a50 50 0 0 1 50-50h450a50 50 0 0 1 50 50v50a50 50 0 0 1-50 50z m-650 500h-50a50 50 0 0 1-50-50v-50a50 50 0 0 1 50-50h50a50 50 0 0 1 50 50v50a50 50 0 0 1-50 50z m0-250h-50a50 50 0 0 1-50-50v-50a50 50 0 0 1 50-50h50a50 50 0 0 1 50 50v50a50 50 0 0 1-50 50z m0-250h-50a50 50 0 0 1-50-50v-50a50 50 0 0 1 50-50h50a50 50 0 0 1 50 50v50a50 50 0 0 1-50 50z" horiz-adv-x="1000" />

<glyph glyph-name="halflings-pro-lock" unicode="&#xe875;" d="M750 450v100a150 150 0 0 1-150 150h-200a150 150 0 0 1-150-150v-100a100 100 0 0 1-100-100v-300a100 100 0 0 1 100-100h500a100 100 0 0 1 100 100v300a100 100 0 0 1-100 100z m-100 0h-300v100a50 50 0 0 0 50 50h200a50 50 0 0 0 50-50z" horiz-adv-x="1000" />

<glyph glyph-name="halflings-pro-lock-off" unicode="&#xe876;" d="M868 785a50 50 0 0 1-71 0l-112-112a147 147 0 0 1-85 27h-200a150 150 0 0 1-150-150v-100a100 100 0 0 1-100-100v-212l-85-85a50 50 0 1 1 70-71l733 733a50 50 0 0 1 0 70z m-406-335h-112v100a50 50 0 0 0 50 50h200a48 48 0 0 0 10-2z m388-100v-300a100 100 0 0 0-100-100h-500a99 99 0 0 0-11 1l499 499h12a100 100 0 0 0 100-100z" horiz-adv-x="1000" />

<glyph glyph-name="halflings-pro-lock-open" unicode="&#xe877;" d="M850 350v-300a100 100 0 0 0-100-100h-500a100 100 0 0 0-100 100v300a100 100 0 0 0 100 100h400v200a50 50 0 0 1-50 50h-200a50 50 0 0 1-50-50v-50h-100v50a150 150 0 0 0 150 150h200a150 150 0 0 0 150-150v-200a100 100 0 0 0 100-100z" horiz-adv-x="1000" />

<glyph glyph-name="halflings-pro-log-in" unicode="&#xe878;" d="M450 300h-275a25 25 0 0 0-25 25v50a25 25 0 0 0 25 25h275v119a25 25 0 0 0 40 20l232-169a25 25 0 0 0 0-40l-232-169a25 25 0 0 0-40 20z m300 450h-350a150 150 0 0 1-150-150v-100h100v100a50 50 0 0 0 50 50h350a50 50 0 0 0 50-50v-500a50 50 0 0 0-50-50h-350a50 50 0 0 0-50 50v100h-100v-100a150 150 0 0 1 150-150h350a150 150 0 0 1 150 150v500a150 150 0 0 1-150 150z" horiz-adv-x="1000" />

<glyph glyph-name="halflings-pro-log-out" unicode="&#xe879;" d="M650 100h100a150 150 0 0 0-150-150h-350a150 150 0 0 0-150 150v500a150 150 0 0 0 150 150h350a150 150 0 0 0 150-150h-100a50 50 0 0 1-50 50h-350a50 50 0 0 1-50-50v-500a50 50 0 0 1 50-50h350a50 50 0 0 1 50 50z m222 270l-232 169a25 25 0 0 1-40-20v-119h-275a25 25 0 0 1-25-25v-50a25 25 0 0 1 25-25h275v-119a25 25 0 0 1 40-20l232 169a25 25 0 0 1 0 40z" horiz-adv-x="1000" />

<glyph glyph-name="halflings-pro-magnet" unicode="&#xe87a;" d="M600 450h200v-225a275 275 0 0 0-275-275h-50a275 275 0 0 0-275 275v225h200v-225a75 75 0 0 1 75-75h50a75 75 0 0 1 75 75z m-200 200a50 50 0 0 1-50 50h-100a50 50 0 0 1-50-50v-100h200z m350 50h-100a50 50 0 0 1-50-50v-100h200v100a50 50 0 0 1-50 50z" horiz-adv-x="1000" />

<glyph glyph-name="halflings-pro-map-marker" unicode="&#xe87b;" d="M500 750a300 300 0 0 1-300-300c0-155 151-371 218-459a103 103 0 0 1 164 0c68 88 218 304 218 459a300 300 0 0 1-300 300z m0-467a167 167 0 1 0 167 167 167 167 0 0 0-167-167z" horiz-adv-x="1000" />

<glyph glyph-name="halflings-pro-memory-card" unicode="&#xe87c;" d="M750 750h-450a50 50 0 0 1-50-50v-229l-85-86a50 50 0 0 1-15-35v-350a50 50 0 0 1 50-50h550a50 50 0 0 1 50 50v700a50 50 0 0 1-50 50z m-250-250h-100v150h100z m200 0h-100v150h100z" horiz-adv-x="1000" />

<glyph glyph-name="halflings-pro-menu" unicode="&#xe87d;" d="M850 650v-50a50 50 0 0 0-50-50h-600a50 50 0 0 0-50 50v50a50 50 0 0 0 50 50h600a50 50 0 0 0 50-50z m-50-200h-600a50 50 0 0 1-50-50v-50a50 50 0 0 1 50-50h600a50 50 0 0 1 50 50v50a50 50 0 0 1-50 50z m0-250h-600a50 50 0 0 1-50-50v-50a50 50 0 0 1 50-50h600a50 50 0 0 1 50 50v50a50 50 0 0 1-50 50z" horiz-adv-x="1000" />

<glyph glyph-name="halflings-pro-menu-close" unicode="&#xe87e;" d="M818 138a50 50 0 0 0 0-70l-36-36a50 50 0 0 0-70 0l-212 212-212-212a50 50 0 0 0-70 0l-36 36a50 50 0 0 0 0 70l212 212-212 212a50 50 0 0 0 0 70l36 36a50 50 0 0 0 70 0l212-212 212 212a50 50 0 0 0 70 0l36-36a50 50 0 0 0 0-70l-212-212z" horiz-adv-x="1000" />

<glyph glyph-name="halflings-pro-mic" unicode="&#xe87f;" d="M350 400v50h300v-50a150 150 0 0 0-300 0z m300 200a150 150 0 0 1-300 0v-50h300z m150-50a50 50 0 0 1-50-50v-100a250 250 0 0 0-500 0v100a50 50 0 0 1-100 0v-100a351 351 0 0 1 250-335v-65a50 50 0 0 1 50-50h100a50 50 0 0 1 50 50v65a351 351 0 0 1 250 335v100a50 50 0 0 1-50 50z" horiz-adv-x="1000" />

<glyph glyph-name="halflings-pro-mic-off" unicode="&#xe880;" d="M850 500v-100a351 351 0 0 0-250-335v-65a50 50 0 0 0-50-50h-100a50 50 0 0 0-50 50v65a344 344 0 0 0-34 13l79 79a248 248 0 0 1 305 243v62l78 78a49 49 0 0 0 22-40z m18 285a50 50 0 0 1-71 0l-151-151a150 150 0 0 1-296-34v-50h212l-100-100h-112v-50a146 146 0 0 1 10-52l-74-74a244 244 0 0 0-36 126v100a50 50 0 0 1-100 0v-100a343 343 0 0 1 64-198l-149-149a50 50 0 1 1 70-71l733 733a50 50 0 0 1 0 70z" horiz-adv-x="1000" />

<glyph glyph-name="halflings-pro-microchip" unicode="&#xe881;" d="M350 500h300v-300h-300z m600-250a50 50 0 0 0-50-50h-50v-100a100 100 0 0 0-100-100h-100v-50a50 50 0 0 0-100 0v50h-100v-50a50 50 0 0 0-100 0v50h-100a100 100 0 0 0-100 100v100h-50a50 50 0 0 0 0 100h50v100h-50a50 50 0 0 0 0 100h50v100a100 100 0 0 0 100 100h100v50a50 50 0 0 0 100 0v-50h100v50a50 50 0 0 0 100 0v-50h100a100 100 0 0 0 100-100v-100h50a50 50 0 0 0 0-100h-50v-100h50a50 50 0 0 0 50-50z m-200 300a50 50 0 0 1-50 50h-400a50 50 0 0 1-50-50v-400a50 50 0 0 1 50-50h400a50 50 0 0 1 50 50z" horiz-adv-x="1000" />

<glyph glyph-name="halflings-pro-minus" unicode="&#xe882;" d="M850 400v-100a50 50 0 0 0-50-50h-600a50 50 0 0 0-50 50v100a50 50 0 0 0 50 50h600a50 50 0 0 0 50-50z" horiz-adv-x="1000" />

<glyph glyph-name="halflings-pro-mobile-phone" unicode="&#xe883;" d="M700 750h-400a100 100 0 0 1-100-100v-600a100 100 0 0 1 100-100h400a100 100 0 0 1 100 100v600a100 100 0 0 1-100 100z m-150-675a25 25 0 0 0-25-25h-50a25 25 0 0 0-25 25v50a25 25 0 0 0 25 25h50a25 25 0 0 0 25-25z m-250 175v400h400l0-400z" horiz-adv-x="1000" />

<glyph glyph-name="halflings-pro-mobile-phone-off" unicode="&#xe884;" d="M700 250h-162l-287-287a99 99 0 0 1 49-13h400a100 100 0 0 1 100 100v462l-100-100z m-150-175a25 25 0 0 0-25-25h-50a25 25 0 0 0-25 25v50a25 25 0 0 0 25 25h50a25 25 0 0 0 25-25z m318 710a50 50 0 0 1-71 0l-48-48a98 98 0 0 1-49 13h-400a100 100 0 0 1-100-100v-462l-135-135a50 50 0 1 1 70-71l733 733a50 50 0 0 1 0 70z m-568-497v362h362z" horiz-adv-x="1000" />

<glyph glyph-name="halflings-pro-moon" unicode="&#xe885;" d="M820 234c-1 0-2 0-3 0q-9-1-17-1a384 384 0 0 0-377 315 384 384 0 0 0 1 141 52 52 0 0 1-53 61 51 51 0 0 1-26-7 400 400 0 0 1 119-734 418 418 0 0 1 86-9 398 398 0 0 1 309 147 53 53 0 0 1-39 87z m-270-134a319 319 0 0 0-65 7 297 297 0 0 0-230 238 301 301 0 0 0 62 244 495 495 0 0 1 7-59 483 483 0 0 1 346-379q17-5 34-8a297 297 0 0 0-154-43z" horiz-adv-x="1000" />

<glyph glyph-name="halflings-pro-more" unicode="&#xe886;" d="M300 350a100 100 0 1 0-100 100 100 100 0 0 0 100-100z m200 100a100 100 0 1 1 100-100 100 100 0 0 1-100 100z m300 0a100 100 0 1 1 100-100 100 100 0 0 1-100 100z" horiz-adv-x="1000" />

<glyph glyph-name="halflings-pro-more-vertical" unicode="&#xe887;" d="M400 650a100 100 0 1 0 100-100 100 100 0 0 0-100 100z m100-200a100 100 0 1 1 100-100 100 100 0 0 1-100 100z m0-300a100 100 0 1 1 100-100 100 100 0 0 1-100 100z" horiz-adv-x="1000" />

<glyph glyph-name="halflings-pro-music" unicode="&#xe888;" d="M800 689v-472a155 155 0 0 0-128-149l-48-7a63 63 0 0 0-74 64v13a107 107 0 0 0 72 96l60 18a25 25 0 0 1 18 24v254l-300-60v-353a155 155 0 0 0-128-149l-48-7a63 63 0 0 0-74 64v13a107 107 0 0 0 72 96l60 18a25 25 0 0 1 18 24v433a50 50 0 0 0 40 49l400 80a50 50 0 0 0 60-49z" horiz-adv-x="1000" />

<glyph glyph-name="halflings-pro-music-alt" unicode="&#xe889;" d="M900 644v-125a50 50 0 0 0-66-47l-84 28v-283a155 155 0 0 0-128-149l-48-7a63 63 0 0 0-74 64v13a107 107 0 0 0 72 96l60 18a25 25 0 0 1 18 24v424a50 50 0 0 0 50 50 212 212 0 0 0 95-22l77-39a50 50 0 0 0 28-45z m-550 6a50 50 0 0 1-50-50v-424a25 25 0 0 0-18-24l-60-18a107 107 0 0 1-72-96v-13a63 63 0 0 1 74-64l48 7a155 155 0 0 1 128 149v483a50 50 0 0 1-50 50z" horiz-adv-x="1000" />

<glyph glyph-name="halflings-pro-no-symbol" unicode="&#xe88a;" d="M500 750a400 400 0 1 1 400-400 401 401 0 0 1-400 400z m-300-400a300 300 0 0 0 474 244l-418-418a298 298 0 0 0-56 174z m300-300a298 298 0 0 0-174 56l418 418a300 300 0 0 0-244-474z" horiz-adv-x="1000" />

<glyph glyph-name="halflings-pro-octagon-remove" unicode="&#xe88b;" d="M666 750h-332l-234-234v-332l234-234h332l234 234v332z m2-497a25 25 0 0 0 0-35l-36-36a25 25 0 0 0-35 0l-97 97-97-97a25 25 0 0 0-35 0l-36 36a25 25 0 0 0 0 35l97 97-97 97a25 25 0 0 0 0 35l36 36a25 25 0 0 0 35 0l97-97 97 97a25 25 0 0 0 35 0l36-36a25 25 0 0 0 0-35l-97-97z" horiz-adv-x="1000" />

<glyph glyph-name="halflings-pro-octagon-remove-empty" unicode="&#xe88c;" d="M666 750h-332l-234-234v-332l234-234h332l234 234v332z m134-524l-176-176h-248l-176 176v248l176 176h248l176-176z m-168 292l36-36a25 25 0 0 0 0-35l-97-97 97-97a25 25 0 0 0 0-35l-36-36a25 25 0 0 0-35 0l-97 97-97-97a25 25 0 0 0-35 0l-36 36a25 25 0 0 0 0 35l97 97-97 97a25 25 0 0 0 0 35l36 36a25 25 0 0 0 35 0l97-97 97 97a25 25 0 0 0 35 0z" horiz-adv-x="1000" />

<glyph glyph-name="halflings-pro-open" unicode="&#xe88d;" d="M307 529l152 214a50 50 0 0 0 82 0l153-214a50 50 0 0 0-41-79h-53v-150a50 50 0 0 0-50-50h-100a50 50 0 0 0-50 50v150h-53a50 50 0 0 0-40 79z m543-379h-700a50 50 0 0 1-50-50v-100a50 50 0 0 1 50-50h700a50 50 0 0 1 50 50v100a50 50 0 0 1-50 50z" horiz-adv-x="1000" />

<glyph glyph-name="halflings-pro-paperclip" unicode="&#xe88e;" d="M832 296l-191-191a162 162 0 0 0-223 0 158 158 0 0 0 0 224l172 171a50 50 0 0 0 70-70l-171-172a58 58 0 0 1 0-82 59 59 0 0 1 81 0l191 191a166 166 0 0 1 0 234 170 170 0 0 1-234 0l-267-267a165 165 0 0 1 89-280 50 50 0 0 0-8-99 54 54 0 0 0-8 0 266 266 0 0 0-144 450l267 267a266 266 0 0 0 376-376z" horiz-adv-x="1000" />

<glyph glyph-name="halflings-pro-paragraph-center" unicode="&#xe88f;" d="M900 150v-50a50 50 0 0 0-50-50h-700a50 50 0 0 0-50 50v50a50 50 0 0 0 50 50h700a50 50 0 0 0 50-50z m-250 150a50 50 0 0 1 50 50v50a50 50 0 0 1-50 50h-300a50 50 0 0 1-50-50v-50a50 50 0 0 1 50-50z m200 400h-700a50 50 0 0 1-50-50v-50a50 50 0 0 1 50-50h700a50 50 0 0 1 50 50v50a50 50 0 0 1-50 50z" horiz-adv-x="1000" />

<glyph glyph-name="halflings-pro-paragraph-justify" unicode="&#xe890;" d="M900 650v-50a50 50 0 0 0-50-50h-600a50 50 0 0 0-50 50v50a50 50 0 0 0 50 50h600a50 50 0 0 0 50-50z m-50-200h-700a50 50 0 0 1-50-50v-50a50 50 0 0 1 50-50h700a50 50 0 0 1 50 50v50a50 50 0 0 1-50 50z m0-250h-700a50 50 0 0 1-50-50v-50a50 50 0 0 1 50-50h700a50 50 0 0 1 50 50v50a50 50 0 0 1-50 50z" horiz-adv-x="1000" />

<glyph glyph-name="halflings-pro-paragraph-left" unicode="&#xe891;" d="M100 350v50a50 50 0 0 0 50 50h350a50 50 0 0 0 50-50v-50a50 50 0 0 0-50-50h-350a50 50 0 0 0-50 50z m750-150h-700a50 50 0 0 1-50-50v-50a50 50 0 0 1 50-50h700a50 50 0 0 1 50 50v50a50 50 0 0 1-50 50z m0 500h-700a50 50 0 0 1-50-50v-50a50 50 0 0 1 50-50h700a50 50 0 0 1 50 50v50a50 50 0 0 1-50 50z" horiz-adv-x="1000" />

<glyph glyph-name="halflings-pro-paragraph-right" unicode="&#xe892;" d="M900 650v-50a50 50 0 0 0-50-50h-700a50 50 0 0 0-50 50v50a50 50 0 0 0 50 50h700a50 50 0 0 0 50-50z m-50-450h-700a50 50 0 0 1-50-50v-50a50 50 0 0 1 50-50h700a50 50 0 0 1 50 50v50a50 50 0 0 1-50 50z m0 250h-350a50 50 0 0 1-50-50v-50a50 50 0 0 1 50-50h350a50 50 0 0 1 50 50v50a50 50 0 0 1-50 50z" horiz-adv-x="1000" />

<glyph glyph-name="halflings-pro-paste" unicode="&#xe893;" d="M700 175v-50a25 25 0 0 0-25-25h-350a25 25 0 0 0-25 25v50a25 25 0 0 0 25 25h350a25 25 0 0 0 25-25z m-25 225h-350a25 25 0 0 1-25-25v-50a25 25 0 0 1 25-25h350a25 25 0 0 1 25 25v50a25 25 0 0 1-25 25z m225 200v-600a100 100 0 0 0-100-100h-600a100 100 0 0 0-100 100v600a100 100 0 0 0 100 100h150l36 72a50 50 0 0 0 45 28h138a50 50 0 0 0 45-28l36-72h150a100 100 0 0 0 100-100z m-100-600l0 600h-100v-50a50 50 0 0 0-50-50h-300a50 50 0 0 0-50 50v50h-100v-600z" horiz-adv-x="1000" />

<glyph glyph-name="halflings-pro-pause" unicode="&#xe894;" d="M450 650v-600a50 50 0 0 0-50-50h-100a50 50 0 0 0-50 50v600a50 50 0 0 0 50 50h100a50 50 0 0 0 50-50z m250 50h-100a50 50 0 0 1-50-50v-600a50 50 0 0 1 50-50h100a50 50 0 0 1 50 50v600a50 50 0 0 1-50 50z" horiz-adv-x="1000" />

<glyph glyph-name="halflings-pro-pencil" unicode="&#xe895;" d="M879 570l-464-464-159 159 464 464a50 50 0 0 0 71 0l88-88a50 50 0 0 0 0-71z m-771-559a40 40 0 0 1 53-53l172 88-137 137z" horiz-adv-x="1000" />

<glyph glyph-name="halflings-pro-picture" unicode="&#xe896;" d="M450 425a75 75 0 1 0-75 75 75 75 0 0 0 75-75z m450 175v-500a100 100 0 0 0-100-100h-600a100 100 0 0 0-100 100v500a100 100 0 0 0 100 100h600a100 100 0 0 0 100-100z m-100-314l0 314h-600v-450l90 90a50 50 0 0 0 70 0l140-140h141l-170 171 142 142a50 50 0 0 0 72-1z" horiz-adv-x="1000" />

<glyph glyph-name="halflings-pro-play" unicode="&#xe897;" d="M735 308l-458-286a50 50 0 0 0-77 42v572a50 50 0 0 0 77 43l458-287a50 50 0 0 0 0-84z" horiz-adv-x="1000" />

<glyph glyph-name="halflings-pro-playlist" unicode="&#xe898;" d="M100 350v50a50 50 0 0 0 50 50h400a50 50 0 0 0 50-50v-50a50 50 0 0 0-50-50h-400a50 50 0 0 0-50 50z m50 200h400a50 50 0 0 1 50 50v50a50 50 0 0 1-50 50h-400a50 50 0 0 1-50-50v-50a50 50 0 0 1 50-50z m250-350h-250a50 50 0 0 1-50-50v-50a50 50 0 0 1 50-50h250a50 50 0 0 1 50 50v50a50 50 0 0 1-50 50z m522 439l-77 39a212 212 0 0 1-95 22 50 50 0 0 1-50-50v-424a25 25 0 0 0-18-24l-60-18a107 107 0 0 1-72-96v-13a63 63 0 0 1 74-64l48 7a155 155 0 0 1 128 149v283l84-28a50 50 0 0 1 66 47v125a50 50 0 0 1-28 45z" horiz-adv-x="1000" />

<glyph glyph-name="halflings-pro-plus" unicode="&#xe899;" d="M850 400v-100a50 50 0 0 0-50-50h-200v-200a50 50 0 0 0-50-50h-100a50 50 0 0 0-50 50v200h-200a50 50 0 0 0-50 50v100a50 50 0 0 0 50 50h200v200a50 50 0 0 0 50 50h100a50 50 0 0 0 50-50v-200h200a50 50 0 0 0 50-50z" horiz-adv-x="1000" />

<glyph glyph-name="halflings-pro-power" unicode="&#xe89a;" d="M450 400v350a50 50 0 0 0 100 0v-350a50 50 0 0 0-100 0z m279 278a50 50 0 0 1-58-82 300 300 0 1 0-342 0 50 50 0 0 1-58 82 400 400 0 1 1 458 0z" horiz-adv-x="1000" />

<glyph glyph-name="halflings-pro-power-cord-plug" unicode="&#xe89b;" d="M800 550v-200a250 250 0 0 0-200-245v-155h-200v155a250 250 0 0 0-200 245v200a50 50 0 0 0 50 50h50v150a50 50 0 0 0 100 0v-150h200v150a50 50 0 0 0 100 0v-150h50a50 50 0 0 0 50-50z" horiz-adv-x="1000" />

<glyph glyph-name="halflings-pro-power-cord-plug-off" unicode="&#xe89c;" d="M875 725a48 48 0 0 0-7-10l-733-733a50 50 0 0 0-70 71l170 170a248 248 0 0 0-35 127v200a50 50 0 0 0 50 50h50v150a50 50 0 0 0 100 0v-150h200v150a50 50 0 0 0 100 0v-62l97 97a50 50 0 0 0 71 0 49 49 0 0 0 7-60z m-475-620v-155h200v155a250 250 0 0 1 200 245v162s-390-390-393-393a21 21 0 0 1-7-14z" horiz-adv-x="1000" />

<glyph glyph-name="halflings-pro-print" unicode="&#xe89d;" d="M900 450v-350a50 50 0 0 0-50-50h-100v150a50 50 0 0 1-50 50h-400a50 50 0 0 1-50-50v-150h-100a50 50 0 0 0-50 50v350a50 50 0 0 0 50 50h700a50 50 0 0 0 50-50z m-550-500h300v200h-300z m400 750a50 50 0 0 1-50 50h-400a50 50 0 0 1-50-50v-100h500z" horiz-adv-x="1000" />

<glyph glyph-name="halflings-pro-progress" unicode="&#xe89e;" d="M850 700h-700a50 50 0 0 1-50-50v-200a50 50 0 0 1 50-50h700a50 50 0 0 1 50 50v200a50 50 0 0 1-50 50z m-50-200h-250v100h250z m50-200h-700a50 50 0 0 1-50-50v-200a50 50 0 0 1 50-50h700a50 50 0 0 1 50 50v200a50 50 0 0 1-50 50z m-50-200h-450v100h450z" horiz-adv-x="1000" />

<glyph glyph-name="halflings-pro-pulse" unicode="&#xe89f;" d="M900 300a50 50 0 0 0-50-50h-100a50 50 0 0 0-48 38l-50 198-103-447a50 50 0 0 0-47-39c-1 0-1 0-2 0a50 50 0 0 0-48 36l-102 340-27-90a50 50 0 0 0-48-36h-125a50 50 0 0 0 0 100h88l64 214a50 50 0 0 0 96 0l96-319 107 466a50 50 0 0 0 49 39 49 49 0 0 0 49-38l90-362h61a50 50 0 0 0 50-50z" horiz-adv-x="1000" />

<glyph glyph-name="halflings-pro-push-pin" unicode="&#xe8a0;" d="M296 208l62-62-168-168-58-18a19 19 0 0 0-18 3 19 19 0 0 0-4 19l18 58z m597 343l-192 192a63 63 0 0 1-88 0l-6-5a63 63 0 0 1 0-88l24-24-142-142a125 125 0 0 1-177 0l-41-40a49 49 0 0 1 0-70l253-253a49 49 0 0 1 70 0l40 41a125 125 0 0 1 0 177l142 142 24-24a63 63 0 0 1 88 0l5 6a63 63 0 0 1 0 88z" horiz-adv-x="1000" />

<glyph glyph-name="halflings-pro-qr-code" unicode="&#xe8a1;" d="M450 50h100v-100h-100z m350 0h-150v-100h250v200h-100z m-550 250h200v-150h100v250h-300z m-50 100h-100v-100h100z m250 150h100v200h-100z m-50-100h-300v300h300z m-100 200h-100v-100h100z m-200-400h300v-300h-300z m100-200h100v100h-100z m700 700v-300h-300v300z m-100-100h-100v-100h100z m50-350v100h-200v-200h100v100z" horiz-adv-x="1000" />

<glyph glyph-name="halflings-pro-random" unicode="&#xe8a2;" d="M997 120a25 25 0 0 0 0-40l-207-151a25 25 0 0 0-40 20v101h-77a149 149 0 0 0-117 56l-67 84 64 80 81-101a50 50 0 0 1 39-19h77v101a25 25 0 0 0 40 20z m-324 430h77v-101a25 25 0 0 1 40-20l207 151a25 25 0 0 1 0 40l-207 151a25 25 0 0 1-40-20v-101h-77a149 149 0 0 1-117-56l-131-164-131 164a149 149 0 0 1-117 56h-77a50 50 0 0 1 0-100h77a50 50 0 0 0 39-19l145-181-145-181a50 50 0 0 0-39-19h-77a50 50 0 0 1 0-100h77a149 149 0 0 1 117 56l340 425a50 50 0 0 0 39 19z" horiz-adv-x="1000" />

<glyph glyph-name="halflings-pro-refresh" unicode="&#xe8a3;" d="M201 337l-101 16a400 400 0 0 0 400 397 396 396 0 0 0 202-56l64 63a25 25 0 0 0 42-14l40-253a25 25 0 0 0-28-29l-254 40a25 25 0 0 0-14 43l77 76a297 297 0 0 1-129 30 300 300 0 0 1-300-300c0-4 1-9 1-13z m598 26c1-4 1-8 1-13a299 299 0 0 0-429-270l77 76a25 25 0 0 1-14 43l-254 40a25 25 0 0 1-28-29l40-253a25 25 0 0 1 42-14l63 63a399 399 0 0 1 603 342z" horiz-adv-x="1000" />

<glyph glyph-name="halflings-pro-reload" unicode="&#xe8a4;" d="M900 348a400 400 0 1 0-400 402 396 396 0 0 0 202-56l64 63a25 25 0 0 0 42-14l40-253a25 25 0 0 0-28-29l-254 40a25 25 0 0 0-14 43l77 76a297 297 0 0 1-129 30 300 300 0 1 1 300-300c0 5 0 9-1 13z" horiz-adv-x="1000" />

<glyph glyph-name="halflings-pro-reload-alt" unicode="&#xe8a5;" d="M783 67a400 400 0 1 0-383 670v88a25 25 0 0 0 40 20l207-150a25 25 0 0 0 0-40l-207-150a25 25 0 0 0-40 20v107a297 297 0 0 1-112-70 300 300 0 1 1 437-14 26 26 0 0 0 3 42c13 9 38 28 38 28a25 25 0 0 0 34-3 401 401 0 0 0-17-548z" horiz-adv-x="1000" />

<glyph glyph-name="halflings-pro-restart" unicode="&#xe8a6;" d="M185 300l-49-16a25 25 0 0 0-33 20 404 404 0 0 0 0 92 25 25 0 0 0 33 20l49-16a25 25 0 0 0 17-26 301 301 0 0 1 0-47 25 25 0 0 0-17-27z m60-106a25 25 0 0 1-29 11l-49-16a25 25 0 0 1-15-36 404 404 0 0 1 54-73 25 25 0 0 1 38 3l31 42a25 25 0 0 1-2 31 302 302 0 0 0-28 38z m185-135a301 301 0 0 0-44 15 25 25 0 0 1-31-8l-30-42a25 25 0 0 1 9-38 404 404 0 0 1 87-28 25 25 0 0 1 29 25v52a25 25 0 0 1-20 24z m215 7a25 25 0 0 1-31 8 301 301 0 0 0-44-15 25 25 0 0 1-20-24v-52a25 25 0 0 1 29-25 404 404 0 0 1 87 28 25 25 0 0 1 9 38z m203 88a402 402 0 0 1-65 479 398 398 0 0 1-183 104v88a25 25 0 0 1-40 20l-207-150a25 25 0 0 1 0-40l207-150a25 25 0 0 1 40 20v107a298 298 0 0 0 112-70 300 300 0 0 0 15-406 25 25 0 0 1-2-31l31-42a25 25 0 0 1 39-3 473 473 0 0 1 53 74z" horiz-adv-x="1000" />

<glyph glyph-name="halflings-pro-retweet" unicode="&#xe8a7;" d="M971 210l-151-207a25 25 0 0 0-40 0l-151 207a25 25 0 0 0 20 40h101v300a50 50 0 0 1-50 50h-285l-73 100h358a150 150 0 0 0 150-150v-300h101a25 25 0 0 0 20-40z m-671-110a50 50 0 0 0-50 50v300h101a25 25 0 0 1 20 40l-151 207a25 25 0 0 1-40 0l-151-207a25 25 0 0 1 20-40h101v-300a150 150 0 0 1 150-150h358l-73 100z" horiz-adv-x="1000" />

<glyph glyph-name="halflings-pro-rewind" unicode="&#xe8a8;" d="M900 553v-405a42 42 0 0 0-64-36l-317 203a42 42 0 0 0 0 70l317 203a42 42 0 0 0 64-35z m-464 35l-317-203a42 42 0 0 1 0-70l317-203a42 42 0 0 1 64 36v405a42 42 0 0 1-64 35z" horiz-adv-x="1000" />

<glyph glyph-name="halflings-pro-roundabout" unicode="&#xe8a9;" d="M976 250h-90a399 399 0 0 0-280-286l-41 93c4 1 8 2 13 3a299 299 0 0 1 204 190h-108a25 25 0 0 0-20 40l151 207a25 25 0 0 0 40 0l151-207a25 25 0 0 0-20-40z m-605-3a25 25 0 0 1-45 2l-54-93a295 295 0 0 0-58 284l-101 11a397 397 0 0 1 1-204 393 393 0 0 1 107-180l-46-79a25 25 0 0 1 25-38l255 27a25 25 0 0 1 20 36z m75 397a300 300 0 0 0 275-92l60 82a400 400 0 0 1-384 102c-2 0-3 0-4-1l-44 77a25 25 0 0 1-45-2l-104-235a25 25 0 0 1 20-35l255-27a25 25 0 0 1 25 38z" horiz-adv-x="1000" />

<glyph glyph-name="halflings-pro-ruler" unicode="&#xe8aa;" d="M950 550v-400a50 50 0 0 0-50-50h-800a50 50 0 0 0-50 50v400a50 50 0 0 0 50 50h50v-175a25 25 0 0 1 25-25h50a25 25 0 0 1 25 25v175h100v-175a25 25 0 0 1 25-25h50a25 25 0 0 1 25 25v175h100v-175a25 25 0 0 1 25-25h50a25 25 0 0 1 25 25v175h100v-175a25 25 0 0 1 25-25h50a25 25 0 0 1 25 25v175h50a50 50 0 0 0 50-50z" horiz-adv-x="1000" />

<glyph glyph-name="halflings-pro-rulers" unicode="&#xe8ab;" d="M900 700v-200a50 50 0 0 0-50-50h-450v-450a50 50 0 0 0-50-50h-200a50 50 0 0 0-50 50v50h75a25 25 0 0 1 25 25v50a25 25 0 0 1-25 25h-75v100h75a25 25 0 0 1 25 25v50a25 25 0 0 1-25 25h-75v100h75a25 25 0 0 1 25 25v50a25 25 0 0 1-25 25h-75v100h75a25 25 0 0 1 25 25v75h100v-75a25 25 0 0 1 25-25h50a25 25 0 0 1 25 25v75h100v-75a25 25 0 0 1 25-25h50a25 25 0 0 1 25 25v75h100v-75a25 25 0 0 1 25-25h50a25 25 0 0 1 25 25v75h50a50 50 0 0 0 50-50z" horiz-adv-x="1000" />

<glyph glyph-name="halflings-pro-satellite" unicode="&#xe8ac;" d="M206 586a25 25 0 0 0 0 35l141 142a25 25 0 0 0 35 0l71-71a25 25 0 0 0 0-35l-141-142a25 25 0 0 0-36 0z m-104-354a25 25 0 0 1-1-36l245-245a25 25 0 0 1 36 1 200 200 0 0 1-280 280z m811 0l-71 71a25 25 0 0 1-35 0l-142-141a25 25 0 0 1 0-36l71-70a25 25 0 0 1 35 0l142 141a25 25 0 0 1 0 35z m-139 251l-141 141a50 50 0 0 1-71 0l-233-233a50 50 0 0 1-14-34 296 296 0 0 0 120-72 296 296 0 0 0 72-120 50 50 0 0 1 34 14l233 233a50 50 0 0 1 0 71z" horiz-adv-x="1000" />

<glyph glyph-name="halflings-pro-save" unicode="&#xe8ad;" d="M307 471a50 50 0 0 0 40 79h53v150a50 50 0 0 0 50 50h100a50 50 0 0 0 50-50v-150h53a50 50 0 0 0 41-79l-153-214a50 50 0 0 0-82 0z m543-321h-700a50 50 0 0 1-50-50v-100a50 50 0 0 1 50-50h700a50 50 0 0 1 50 50v100a50 50 0 0 1-50 50z" horiz-adv-x="1000" />

<glyph glyph-name="halflings-pro-save-as" unicode="&#xe8ae;" d="M900 100v-100a50 50 0 0 0-50-50h-700a50 50 0 0 0-50 50v100a50 50 0 0 0 50 50h75a25 25 0 0 0 25-25v-50a25 25 0 0 1 25-25h50a25 25 0 0 1 25 25v50a25 25 0 0 0 25 25h50a25 25 0 0 0 25-25v-50a25 25 0 0 1 25-25h50a25 25 0 0 1 25 25v50a25 25 0 0 0 25 25h50a25 25 0 0 0 25-25v-50a25 25 0 0 1 25-25h50a25 25 0 0 1 25 25v50a25 25 0 0 0 25 25h75a50 50 0 0 0 50-50z m-441 157a50 50 0 0 1 82 0l153 214a50 50 0 0 1-41 79h-53v150a50 50 0 0 1-50 50h-100a50 50 0 0 1-50-50v-150h-53a50 50 0 0 1-40-79z" horiz-adv-x="1000" />

<glyph glyph-name="halflings-pro-scissors" unicode="&#xe8af;" d="M177 704a50 50 0 0 0 21 70l34 17a25 25 0 0 0 31-7l174-224-86-110h-24z m727-544l-76 138a100 100 0 0 1-87 52h-10l-74-125h69l56-103-87-51-64 109-73-124 42-70a100 100 0 0 1 136-36l130 76a100 100 0 0 1 38 134z m-81 544l-422-718a100 100 0 0 0-137-36l-130 76a100 100 0 0 0-37 134l75 138a100 100 0 0 0 87 52h141l337 434a25 25 0 0 0 31 7l34-17a50 50 0 0 0 21-70z m-427-479h-122l-56-103 87-51z" horiz-adv-x="1000" />

<glyph glyph-name="halflings-pro-search" unicode="&#xe8b0;" d="M883 73l-225 225a301 301 0 1 1-106-106l225-225a50 50 0 0 1 70 0l36 36a50 50 0 0 1 0 70z m-483 177a200 200 0 1 0 200 200 200 200 0 0 0-200-200z" horiz-adv-x="1000" />

<glyph glyph-name="halflings-pro-send" unicode="&#xe8b1;" d="M893 698l-101-672a25 25 0 0 0-34-19l-285 122-130-130a25 25 0 0 0-43 18v157l329 270a50 50 0 0 1-63 77l-347-284-167 72a25 25 0 0 0-1 46l807 370a25 25 0 0 0 35-27z" horiz-adv-x="1000" />

<glyph glyph-name="halflings-pro-set" unicode="&#xe8b2;" d="M235 441l246 287a25 25 0 0 0 38 0l246-287a25 25 0 0 0-19-41h-492a25 25 0 0 0-19 41z m511-141h-492a25 25 0 0 1-19-41l246-287a25 25 0 0 1 38 0l246 287a25 25 0 0 1-19 41z" horiz-adv-x="1000" />

<glyph glyph-name="halflings-pro-set-down" unicode="&#xe8b3;" d="M814 459l-295-337a25 25 0 0 0-38 0l-295 337a25 25 0 0 0 19 41h590a25 25 0 0 0 19-41z" horiz-adv-x="1000" />

<glyph glyph-name="halflings-pro-shield-check" unicode="&#xe8b4;" d="M764 759a882 882 0 0 1-264 41 882 882 0 0 1-264-41 124 124 0 0 1-86-119v-243c0-259 300-433 313-440a75 75 0 0 1 74 0c13 7 313 181 313 440v243a124 124 0 0 1-86 119z m-50-245l-226-267a50 50 0 0 0-75-1l-112 124a25 25 0 0 0 1 33l27 30a25 25 0 0 0 32 4l81-51 214 185a25 25 0 0 0 33-1l23-22a25 25 0 0 0 2-34z" horiz-adv-x="1000" />

<glyph glyph-name="halflings-pro-skip-to-end" unicode="&#xe8b5;" d="M481 385a42 42 0 0 0 0-70l-317-203a42 42 0 0 0-64 36v405a42 42 0 0 0 64 35z m83 203a42 42 0 0 1-64-35v-405a42 42 0 0 1 64-36l317 203a42 42 0 0 1 0 70z m386 12a50 50 0 0 1-50-50v-400a50 50 0 0 1 100 0v400a50 50 0 0 1-50 50z" horiz-adv-x="1000" />

<glyph glyph-name="halflings-pro-skip-to-next" unicode="&#xe8b6;" d="M631 385a42 42 0 0 0 0-70l-317-203a42 42 0 0 0-64 36v405a42 42 0 0 0 64 35z m69 215a50 50 0 0 1-50-50v-400a50 50 0 0 1 100 0v400a50 50 0 0 1-50 50z" horiz-adv-x="1000" />

<glyph glyph-name="halflings-pro-skip-to-previous" unicode="&#xe8b7;" d="M750 553v-405a42 42 0 0 0-64-36l-317 203a42 42 0 0 0 0 70l317 203a42 42 0 0 0 64-35z m-450 47a50 50 0 0 1-50-50v-400a50 50 0 0 1 100 0v400a50 50 0 0 1-50 50z" horiz-adv-x="1000" />

<glyph glyph-name="halflings-pro-skip-to-start" unicode="&#xe8b8;" d="M900 553v-405a42 42 0 0 0-64-36l-317 203a42 42 0 0 0 0 70l317 203a42 42 0 0 0 64-35z m-464 35l-317-203a42 42 0 0 1 0-70l317-203a42 42 0 0 1 64 36v405a42 42 0 0 1-64 35z m-386 12a50 50 0 0 1-50-50v-400a50 50 0 0 1 100 0v400a50 50 0 0 1-50 50z" horiz-adv-x="1000" />

<glyph glyph-name="halflings-pro-slightly-frowning" unicode="&#xe8b9;" d="M550 450v50a50 50 0 0 0 100 0v-50a50 50 0 0 0-100 0z m-150-50a50 50 0 0 1 50 50v50a50 50 0 0 1-100 0v-50a50 50 0 0 1 50-50z m100-50a225 225 0 0 1-183-96 50 50 0 1 1 81-58 123 123 0 0 0 204 0 50 50 0 1 1 82 58 225 225 0 0 1-184 96z m400 0a400 400 0 1 0-400 400 401 401 0 0 0 400-400z m-100 0a300 300 0 1 1-300-300 300 300 0 0 1 300 300z" horiz-adv-x="1000" />

<glyph glyph-name="halflings-pro-slightly-smiling" unicode="&#xe8ba;" d="M500 750a400 400 0 1 1 400-400 401 401 0 0 1-400 400z m0-700a300 300 0 1 0 300 300 300 300 0 0 0-300-300z m50 400v50a50 50 0 0 0 100 0v-50a50 50 0 0 0-100 0z m-200 0v50a50 50 0 0 0 100 0v-50a50 50 0 0 0-100 0z m321-134a50 50 0 0 0 13-70 223 223 0 0 0-367 0 50 50 0 1 0 81 58 123 123 0 0 1 204 0 50 50 0 0 0 69 12z" horiz-adv-x="1000" />

<glyph glyph-name="halflings-pro-sort" unicode="&#xe8bb;" d="M853 450h-53v-150a50 50 0 0 0-50-50h-100a50 50 0 0 0-50 50v150h-53a50 50 0 0 0-40 79l152 214a50 50 0 0 0 82 0l153-214a50 50 0 0 0-41-79z m-400-200h-53v150a50 50 0 0 1-50 50h-100a50 50 0 0 1-50-50v-150h-53a50 50 0 0 1-40-79l152-214a50 50 0 0 1 82 0l153 214a50 50 0 0 1-41 79z" horiz-adv-x="1000" />

<glyph glyph-name="halflings-pro-spell-check" unicode="&#xe8bc;" d="M133 257a50 50 0 0 1 64 30l24 67h104l24-67a50 50 0 0 1 94 33l-123 345a50 50 0 0 1-94 0l-123-345a50 50 0 0 1 30-63z m157 197h-33l16 46z m308-200h125a125 125 0 0 1 125 125v50a124 124 0 0 1-40 91 123 123 0 0 1 15 59 125 125 0 0 1-125 125h-100a50 50 0 0 1-50-50v-350a50 50 0 0 1 50-50z m150 125a25 25 0 0 0-25-25h-75v100h75a25 25 0 0 0 25-25z m-100 225h50a25 25 0 0 0 0-50h-50z m237-619a119 119 0 0 0-86-35 140 140 0 0 0-115 70c-18 25-24 30-34 30-11 0-17-5-35-30a140 140 0 0 0-115-70 140 140 0 0 0-115 70c-19 25-25 30-35 30-11 0-16-5-35-30a140 140 0 0 0-115-70 118 118 0 0 0-84 34 50 50 0 0 0 68 73 20 20 0 0 1 16-7c10 0 16 5 35 30a140 140 0 0 0 115 70 140 140 0 0 0 115-70c19-25 24-30 35-30 10 0 16 5 34 30a140 140 0 0 0 116 70 140 140 0 0 0 114-70c19-25 25-30 35-30 5 0 9 1 16 8a50 50 0 1 0 70-73z" horiz-adv-x="1000" />

<glyph glyph-name="halflings-pro-square-alert" unicode="&#xe8bd;" d="M750 750h-500a150 150 0 0 1-150-150v-500a150 150 0 0 1 150-150h500a150 150 0 0 1 150 150v500a150 150 0 0 1-150 150z m-200-575a25 25 0 0 0-25-25h-50a25 25 0 0 0-25 25v50a25 25 0 0 0 25 25h50a25 25 0 0 0 25-25z m0 225l-13-79a25 25 0 0 0-25-21h-24a25 25 0 0 0-25 21l-13 79v175a25 25 0 0 0 25 25h50a25 25 0 0 0 25-25z" horiz-adv-x="1000" />

<glyph glyph-name="halflings-pro-square-check" unicode="&#xe8be;" d="M750 750h-500a150 150 0 0 1-150-150v-500a150 150 0 0 1 150-150h500a150 150 0 0 1 150 150v500a150 150 0 0 1-150 150z m-36-286l-226-267a50 50 0 0 0-75-1l-112 124a25 25 0 0 0 1 33l27 30a25 25 0 0 0 32 4l81-51 214 185a25 25 0 0 0 33-1l23-22a25 25 0 0 0 2-34z" horiz-adv-x="1000" />

<glyph glyph-name="halflings-pro-square-checkbox" unicode="&#xe8bf;" d="M800 282l100 104v-286a150 150 0 0 0-150-150h-500a150 150 0 0 0-150 150v500a150 150 0 0 0 150 150h500a148 148 0 0 0 42-7l-111-93h-431a50 50 0 0 1-50-50v-500a50 50 0 0 1 50-50h500a50 50 0 0 1 50 50z m183 369l-50 50a25 25 0 0 1-34 1l-382-319-131 88a25 25 0 0 1-34-6l-38-48a25 25 0 0 1 1-33l182-195a50 50 0 0 1 73-1l413 428a25 25 0 0 1 0 35z" horiz-adv-x="1000" />

<glyph glyph-name="halflings-pro-square-down" unicode="&#xe8c0;" d="M750 750h-500a150 150 0 0 1-150-150v-500a150 150 0 0 1 150-150h500a150 150 0 0 1 150 150v500a150 150 0 0 1-150 150z m-102-439l-127-182a25 25 0 0 0-41 0l-127 182a25 25 0 0 0 20 39h77v175a25 25 0 0 0 25 25h50a25 25 0 0 0 25-25v-175h77a25 25 0 0 0 21-39z" horiz-adv-x="1000" />

<glyph glyph-name="halflings-pro-square-download" unicode="&#xe8c1;" d="M331 500h119v275a25 25 0 0 0 25 25h50a25 25 0 0 0 25-25v-275h119a25 25 0 0 0 20-40l-169-232a25 25 0 0 0-40 0l-169 232a25 25 0 0 0 20 40z m419 250h-100v-100h100a50 50 0 0 0 50-50v-500a50 50 0 0 0-50-50h-500a50 50 0 0 0-50 50v500a50 50 0 0 0 50 50h100v100h-100a150 150 0 0 1-150-150v-500a150 150 0 0 1 150-150h500a150 150 0 0 1 150 150v500a150 150 0 0 1-150 150z" horiz-adv-x="1000" />

<glyph glyph-name="halflings-pro-square-edit" unicode="&#xe8c2;" d="M979 620l-314-314-159 159 314 314a50 50 0 0 0 71 0l88-88a50 50 0 0 0 0-71z m-179-520a50 50 0 0 0-50-50h-500a50 50 0 0 0-50 50v500a50 50 0 0 0 50 50h300l100 100h-400a150 150 0 0 1-150-150v-500a150 150 0 0 1 150-150h500a150 150 0 0 1 150 150v300l-100-100z m-389 58l172 88-137 137-88-172a40 40 0 0 1 53-53z" horiz-adv-x="1000" />

<glyph glyph-name="halflings-pro-square-empty" unicode="&#xe8c3;" d="M750 750h-500a150 150 0 0 1-150-150v-500a150 150 0 0 1 150-150h500a150 150 0 0 1 150 150v500a150 150 0 0 1-150 150z m50-650a50 50 0 0 0-50-50h-500a50 50 0 0 0-50 50v500a50 50 0 0 0 50 50h500a50 50 0 0 0 50-50z" horiz-adv-x="1000" />

<glyph glyph-name="halflings-pro-square-indeterminate" unicode="&#xe8c4;" d="M750 750h-500a150 150 0 0 1-150-150v-500a150 150 0 0 1 150-150h500a150 150 0 0 1 150 150v500a150 150 0 0 1-150 150z m50-650a50 50 0 0 0-50-50h-500a50 50 0 0 0-50 50v500a50 50 0 0 0 50 50h500a50 50 0 0 0 50-50z m-150 300v-100a50 50 0 0 0-50-50h-200a50 50 0 0 0-50 50v100a50 50 0 0 0 50 50h200a50 50 0 0 0 50-50z" horiz-adv-x="1000" />

<glyph glyph-name="halflings-pro-square-info" unicode="&#xe8c5;" d="M750 750h-500a150 150 0 0 1-150-150v-500a150 150 0 0 1 150-150h500a150 150 0 0 1 150 150v500a150 150 0 0 1-150 150z m-312-219l12 50a25 25 0 0 0 25 19h68a25 25 0 0 0 24-31l-12-50a25 25 0 0 0-24-19h-69a25 25 0 0 0-24 31z m134-312l-12-50a25 25 0 0 0-24-19h-119a25 25 0 0 0-24 31l42 169h-23a25 25 0 0 0-24 31l12 50a25 25 0 0 0 25 19h86a50 50 0 0 0 49-62l-35-138h23a25 25 0 0 0 24-31z" horiz-adv-x="1000" />

<glyph glyph-name="halflings-pro-square-left" unicode="&#xe8c6;" d="M750 750h-500a150 150 0 0 1-150-150v-500a150 150 0 0 1 150-150h500a150 150 0 0 1 150 150v500a150 150 0 0 1-150 150z m-50-425a25 25 0 0 0-25-25h-175v-77a25 25 0 0 0-39-20l-182 127a25 25 0 0 0 0 41l182 127a25 25 0 0 0 39-21v-77h175a25 25 0 0 0 25-25z" horiz-adv-x="1000" />

<glyph glyph-name="halflings-pro-square-menu" unicode="&#xe8c7;" d="M750 750h-500a150 150 0 0 1-150-150v-500a150 150 0 0 1 150-150h500a150 150 0 0 1 150 150v500a150 150 0 0 1-150 150z m-100-525a25 25 0 0 0-25-25h-250a25 25 0 0 0-25 25v50a25 25 0 0 0 25 25h250a25 25 0 0 0 25-25z m0 200a25 25 0 0 0-25-25h-250a25 25 0 0 0-25 25v50a25 25 0 0 0 25 25h250a25 25 0 0 0 25-25z" horiz-adv-x="1000" />

<glyph glyph-name="halflings-pro-square-minus" unicode="&#xe8c8;" d="M750 750h-500a150 150 0 0 1-150-150v-500a150 150 0 0 1 150-150h500a150 150 0 0 1 150 150v500a150 150 0 0 1-150 150z m-50-425a25 25 0 0 0-25-25h-350a25 25 0 0 0-25 25v50a25 25 0 0 0 25 25h350a25 25 0 0 0 25-25z" horiz-adv-x="1000" />

<glyph glyph-name="halflings-pro-square-more" unicode="&#xe8c9;" d="M750 750h-500a150 150 0 0 1-150-150v-500a150 150 0 0 1 150-150h500a150 150 0 0 1 150 150v500a150 150 0 0 1-150 150z m-400-487a88 88 0 1 0 88 87 88 88 0 0 0-88-87z m300 0a88 88 0 1 0 88 87 88 88 0 0 0-88-87z" horiz-adv-x="1000" />

<glyph glyph-name="halflings-pro-square-new-window" unicode="&#xe8ca;" d="M800 346l100-100v-146a150 150 0 0 0-150-150h-500a150 150 0 0 0-150 150v500a150 150 0 0 0 150 150h146l100-100h-246a50 50 0 0 1-50-50v-500a50 50 0 0 1 50-50h500a50 50 0 0 1 50 50z m72 405l-284-45a25 25 0 0 1-13-43l75-75-259-258a50 50 0 0 1 0-71l18-18a50 50 0 0 1 71 0l258 259 75-75a25 25 0 0 1 43 13l45 284a25 25 0 0 1-29 29z" horiz-adv-x="1000" />

<glyph glyph-name="halflings-pro-square-play" unicode="&#xe8cb;" d="M750 750h-500a150 150 0 0 1-150-150v-500a150 150 0 0 1 150-150h500a150 150 0 0 1 150 150v500a150 150 0 0 1-150 150z m-81-418l-230-153a25 25 0 0 0-39 21v305a25 25 0 0 0 39 21l230-153a25 25 0 0 0 0-41z" horiz-adv-x="1000" />

<glyph glyph-name="halflings-pro-square-plus" unicode="&#xe8cc;" d="M750 750h-500a150 150 0 0 1-150-150v-500a150 150 0 0 1 150-150h500a150 150 0 0 1 150 150v500a150 150 0 0 1-150 150z m-50-425a25 25 0 0 0-25-25h-125v-125a25 25 0 0 0-25-25h-50a25 25 0 0 0-25 25v125h-125a25 25 0 0 0-25 25v50a25 25 0 0 0 25 25h125v125a25 25 0 0 0 25 25h50a25 25 0 0 0 25-25v-125h125a25 25 0 0 0 25-25z" horiz-adv-x="1000" />

<glyph glyph-name="halflings-pro-square-question" unicode="&#xe8cd;" d="M750 750h-500a150 150 0 0 1-150-150v-500a150 150 0 0 1 150-150h500a150 150 0 0 1 150 150v500a150 150 0 0 1-150 150z m-200-575a25 25 0 0 0-25-25h-50a25 25 0 0 0-25 25v50a25 25 0 0 0 25 25h50a25 25 0 0 0 25-25z m31 185s-31-14-31-35a24 24 0 0 0-25-25h-50a25 25 0 0 0-25 25v19a100 100 0 0 0 55 90l31 15a25 25 0 0 1 14 22 26 26 0 0 1-25 29h-50a25 25 0 0 1-25-25 25 25 0 0 0-25-25h-50a25 25 0 0 0-25 25 125 125 0 0 0 125 125h46a127 127 0 0 0 60-240z" horiz-adv-x="1000" />

<glyph glyph-name="halflings-pro-square-remove" unicode="&#xe8ce;" d="M750 750h-500a150 150 0 0 1-150-150v-500a150 150 0 0 1 150-150h500a150 150 0 0 1 150 150v500a150 150 0 0 1-150 150z m-91-488a25 25 0 0 0 0-36l-35-35a25 25 0 0 0-36 0l-88 88-88-88a25 25 0 0 0-36 0l-35 35a25 25 0 0 0 0 36l88 88-88 88a25 25 0 0 0 0 36l35 35a25 25 0 0 0 36 0l88-88 88 88a25 25 0 0 0 36 0l35-35a25 25 0 0 0 0-36l-88-88z" horiz-adv-x="1000" />

<glyph glyph-name="halflings-pro-square-right" unicode="&#xe8cf;" d="M750 750h-500a150 150 0 0 1-150-150v-500a150 150 0 0 1 150-150h500a150 150 0 0 1 150 150v500a150 150 0 0 1-150 150z m-29-420l-182-127a25 25 0 0 0-39 20v77h-175a25 25 0 0 0-25 25v50a25 25 0 0 0 25 25h175v77a25 25 0 0 0 39 21l182-127a25 25 0 0 0 0-41z" horiz-adv-x="1000" />

<glyph glyph-name="halflings-pro-square-selected" unicode="&#xe8d0;" d="M750 750h-500a150 150 0 0 1-150-150v-500a150 150 0 0 1 150-150h500a150 150 0 0 1 150 150v500a150 150 0 0 1-150 150z m50-650a50 50 0 0 0-50-50h-500a50 50 0 0 0-50 50v500a50 50 0 0 0 50 50h500a50 50 0 0 0 50-50z m-100 400v-300a50 50 0 0 0-50-50h-300a50 50 0 0 0-50 50v300a50 50 0 0 0 50 50h300a50 50 0 0 0 50-50z" horiz-adv-x="1000" />

<glyph glyph-name="halflings-pro-square-triangle-down" unicode="&#xe8d1;" d="M689 410l-169-232a25 25 0 0 0-40 0l-169 232a25 25 0 0 0 20 40h338a25 25 0 0 0 20-40z m211 190v-500a150 150 0 0 0-150-150h-500a150 150 0 0 0-150 150v500a150 150 0 0 0 150 150h500a150 150 0 0 0 150-150z m-100 0a50 50 0 0 1-50 50h-500a50 50 0 0 1-50-50v-500a50 50 0 0 1 50-50h500a50 50 0 0 1 50 50z" horiz-adv-x="1000" />

<glyph glyph-name="halflings-pro-square-triangle-left" unicode="&#xe8d2;" d="M600 519v-338a25 25 0 0 0-40-20l-232 169a25 25 0 0 0 0 40l232 169a25 25 0 0 0 40-20z m300 81v-500a150 150 0 0 0-150-150h-500a150 150 0 0 0-150 150v500a150 150 0 0 0 150 150h500a150 150 0 0 0 150-150z m-100 0a50 50 0 0 1-50 50h-500a50 50 0 0 1-50-50v-500a50 50 0 0 1 50-50h500a50 50 0 0 1 50 50z" horiz-adv-x="1000" />

<glyph glyph-name="halflings-pro-square-triangle-right" unicode="&#xe8d3;" d="M672 370a25 25 0 0 0 0-40l-232-169a25 25 0 0 0-40 20v338a25 25 0 0 0 40 20z m228 230v-500a150 150 0 0 0-150-150h-500a150 150 0 0 0-150 150v500a150 150 0 0 0 150 150h500a150 150 0 0 0 150-150z m-100 0a50 50 0 0 1-50 50h-500a50 50 0 0 1-50-50v-500a50 50 0 0 1 50-50h500a50 50 0 0 1 50 50z" horiz-adv-x="1000" />

<glyph glyph-name="halflings-pro-square-triangle-up" unicode="&#xe8d4;" d="M689 290a25 25 0 0 0-20-40h-338a25 25 0 0 0-20 40l169 232a25 25 0 0 0 40 0z m211 310v-500a150 150 0 0 0-150-150h-500a150 150 0 0 0-150 150v500a150 150 0 0 0 150 150h500a150 150 0 0 0 150-150z m-100 0a50 50 0 0 1-50 50h-500a50 50 0 0 1-50-50v-500a50 50 0 0 1 50-50h500a50 50 0 0 1 50 50z" horiz-adv-x="1000" />

<glyph glyph-name="halflings-pro-square-up" unicode="&#xe8d5;" d="M750 750h-500a150 150 0 0 1-150-150v-500a150 150 0 0 1 150-150h500a150 150 0 0 1 150 150v500a150 150 0 0 1-150 150z m-123-400h-77v-175a25 25 0 0 0-25-25h-50a25 25 0 0 0-25 25v175h-77a25 25 0 0 0-20 39l127 182a25 25 0 0 0 41 0l127-182a25 25 0 0 0-21-39z" horiz-adv-x="1000" />

<glyph glyph-name="halflings-pro-square-upload" unicode="&#xe8d6;" d="M900 600v-500a150 150 0 0 0-150-150h-500a150 150 0 0 0-150 150v500a150 150 0 0 0 150 150h54l-74-102c-1-1-1-2-2-4a50 50 0 0 1-28-44v-500a50 50 0 0 1 50-50h500a50 50 0 0 1 50 50v500a50 50 0 0 1-28 44c-1 2-1 3-2 4l-74 102h54a150 150 0 0 0 150-150z m-569-50h119v-275a25 25 0 0 1 25-25h50a25 25 0 0 1 25 25v275h119a25 25 0 0 1 20 40l-169 232a25 25 0 0 1-40 0l-169-232a25 25 0 0 1 20-40z" horiz-adv-x="1000" />

<glyph glyph-name="halflings-pro-star" unicode="&#xe8d7;" d="M919 441l-228-165 87-268a33 33 0 0 0-31-43 32 32 0 0 0-19 6l-228 166-228-166a32 32 0 0 0-19-6 33 33 0 0 0-31 43l87 268-228 165a33 33 0 0 0 19 59h282l87 268a33 33 0 0 0 62 0l87-268h282a33 33 0 0 0 19-59z" horiz-adv-x="1000" />

<glyph glyph-name="halflings-pro-star-empty" unicode="&#xe8d8;" d="M900 500h-282l-87 268a33 33 0 0 1-62 0l-87-268h-282a33 33 0 0 1-19-59l228-165-87-268a33 33 0 0 1 31-43 32 32 0 0 1 19 6l228 166 228-166a32 32 0 0 1 19-6 33 33 0 0 1 31 43l-87 268 228 165a33 33 0 0 1-19 59z m-326-186l45-140-119 86-118-86 45 140-119 86h147l45 140 46-140h146z" horiz-adv-x="1000" />

<glyph glyph-name="halflings-pro-star-half" unicode="&#xe8d9;" d="M900 500h-282l-87 268a33 33 0 0 1-62 0l-87-268h-282a33 33 0 0 1-19-59l228-165-87-268a33 33 0 0 1 31-43 32 32 0 0 1 19 6l228 166 228-166a32 32 0 0 1 19-6 33 33 0 0 1 31 43l-87 268 228 165a33 33 0 0 1-19 59z m-326-186l45-140-119 86 0 279 46-139h146z" horiz-adv-x="1000" />

<glyph glyph-name="halflings-pro-stats" unicode="&#xe8da;" d="M900 125v-125a50 50 0 0 0-50-50h-700a50 50 0 0 0-50 50v700a50 50 0 0 0 50 50h125a25 25 0 0 0 25-25v-50a25 25 0 0 0-25-25h-50a25 25 0 0 1-25-25v-50a25 25 0 0 1 25-25h50a25 25 0 0 0 25-25v-50a25 25 0 0 0-25-25h-50a25 25 0 0 1-25-25v-50a25 25 0 0 1 25-25h50a25 25 0 0 0 25-25v-50a25 25 0 0 0-25-25h-50a25 25 0 0 1-25-25v-50a25 25 0 0 1 25-25h50a25 25 0 0 0 25-25v-50a25 25 0 0 1 25-25h50a25 25 0 0 1 25 25v50a25 25 0 0 0 25 25h50a25 25 0 0 0 25-25v-50a25 25 0 0 1 25-25h50a25 25 0 0 1 25 25v50a25 25 0 0 0 25 25h50a25 25 0 0 0 25-25v-50a25 25 0 0 1 25-25h50a25 25 0 0 1 25 25v50a25 25 0 0 0 25 25h50a25 25 0 0 0 25-25z m-500 75a50 50 0 0 1 19 4l170 68a100 100 0 0 1 144 133l73 146a100 100 0 1 1-89 44l-73-146a100 100 0 0 1-92-85l-171-68a50 50 0 0 1 19-96z" horiz-adv-x="1000" />

<glyph glyph-name="halflings-pro-stats-bars" unicode="&#xe8db;" d="M900 50v-50a50 50 0 0 0-50-50h-750a50 50 0 0 0-50 50v50a50 50 0 0 0 50 50h50v150a50 50 0 0 0 50 50h50a50 50 0 0 0 50-50v-150h100v600a50 50 0 0 0 50 50h50a50 50 0 0 0 50-50v-600h100v350a50 50 0 0 0 50 50h50a50 50 0 0 0 50-50v-350h50a50 50 0 0 0 50-50z" horiz-adv-x="1000" />

<glyph glyph-name="halflings-pro-stats-circle" unicode="&#xe8dc;" d="M723 350l136 136a446 446 0 0 0 38-136z m-198 0h57l224 224a452 452 0 0 1-79 80l-227-227v-52a25 25 0 0 1 25-25z m-25 397v-179l140 140a447 447 0 0 1-140 39z m-100-447v346a350 350 0 1 1 396-396h-346a50 50 0 0 0-50 50z" horiz-adv-x="1000" />

<glyph glyph-name="halflings-pro-stop" unicode="&#xe8dd;" d="M800 600v-500a50 50 0 0 0-50-50h-500a50 50 0 0 0-50 50v500a50 50 0 0 0 50 50h500a50 50 0 0 0 50-50z" horiz-adv-x="1000" />

<glyph glyph-name="halflings-pro-strikethrough" unicode="&#xe8de;" d="M650 50v-50a50 50 0 0 0-50-50h-250a50 50 0 0 0-50 50v50a50 50 0 0 0 50 50h50v100h150v-100h50a50 50 0 0 0 50-50z m150 700h-650a50 50 0 0 1-50-50v-150a50 50 0 0 1 50-50h50a50 50 0 0 1 50 50v50h150v-200h-200a50 50 0 0 1 0-100h550a50 50 0 0 1 0 100h-200v200h150v-50a50 50 0 0 1 50-50h50a50 50 0 0 1 50 50v150a50 50 0 0 1-50 50z" horiz-adv-x="1000" />

<glyph glyph-name="halflings-pro-sun" unicode="&#xe8df;" d="M550 50v-50a50 50 0 0 0-100 0v50a50 50 0 0 0 100 0z m-50 550a50 50 0 0 1 50 50v50a50 50 0 0 1-100 0v-50a50 50 0 0 1 50-50z m-250-250a50 50 0 0 1-50 50h-50a50 50 0 0 1 0-100h50a50 50 0 0 1 50 50z m600 50h-50a50 50 0 0 1 0-100h50a50 50 0 0 1 0 100z m-138 112a50 50 0 0 1 36 15l35 35a50 50 0 0 1-71 71l-35-35a50 50 0 0 1 35-86z m-459-339l-36-35a50 50 0 0 1 71-71l35 36a50 50 0 1 1-70 70z m0 354a50 50 0 1 1 70 71l-35 35a50 50 0 0 1-71-71z m495-354a50 50 0 0 1-71-70l35-36a50 50 0 0 1 71 71z m-48 177a200 200 0 1 0-200 200 200 200 0 0 0 200-200z m-100 0a100 100 0 1 1-100-100 100 100 0 0 1 100 100z" horiz-adv-x="1000" />

<glyph glyph-name="halflings-pro-switch" unicode="&#xe8e0;" d="M600 200v-100a50 50 0 0 0-50-50h-150v-53a50 50 0 0 0-79-41l-214 153a50 50 0 0 0 0 82l214 153a50 50 0 0 0 79-41v-53h150a50 50 0 0 0 50-50z m293 391l-214 153a50 50 0 0 1-79-41v-53h-150a50 50 0 0 1-50-50v-100a50 50 0 0 1 50-50h150v-53a50 50 0 0 1 79-40l214 152a50 50 0 0 1 0 82z" horiz-adv-x="1000" />

<glyph glyph-name="halflings-pro-switch-off" unicode="&#xe8e1;" d="M700 650h-400a300 300 0 0 1 0-600h400a300 300 0 0 1 0 600z m0-500h-400a200 200 0 0 0 0 400h400a200 200 0 0 0 0-400z m-300 200a100 100 0 1 0-100 100 100 100 0 0 0 100-100z" horiz-adv-x="1000" />

<glyph glyph-name="halflings-pro-switch-on" unicode="&#xe8e2;" d="M800 350a100 100 0 1 0-100 100 100 100 0 0 0 100-100z m200 0a300 300 0 0 0-300-300h-400a300 300 0 0 0 0 600h400a300 300 0 0 0 300-300z m-100 0a200 200 0 1 1-200-200 200 200 0 0 1 200 200z" horiz-adv-x="1000" />

<glyph glyph-name="halflings-pro-table" unicode="&#xe8e3;" d="M750 750h-500a100 100 0 0 1-100-100v-650a50 50 0 0 1 50-50h600a50 50 0 0 1 50 50v650a100 100 0 0 1-100 100z m-400-700h-100v100h100z m0 200h-100v100h100z m0 200h-100v100h100z m200-400h-100v100h100z m0 200h-100v100h100z m0 200h-100v100h100z m200-400h-100v100h100z m0 200h-100v100h100z m0 200h-100v100h100z" horiz-adv-x="1000" />

<glyph glyph-name="halflings-pro-tag" unicode="&#xe8e4;" d="M877 337l-398 398a50 50 0 0 1-35 15h-294a50 50 0 0 1-50-50v-294a50 50 0 0 1 15-35l398-398a50 50 0 0 1 70 0l294 294a50 50 0 0 1 0 70z m-552 113a75 75 0 1 0 75 75 75 75 0 0 0-75-75z" horiz-adv-x="1000" />

<glyph glyph-name="halflings-pro-terminal" unicode="&#xe8e5;" d="M800 750h-600a100 100 0 0 1-100-100v-600a100 100 0 0 1 100-100h600a100 100 0 0 1 100 100v600a100 100 0 0 1-100 100z m-316-375l-250-100a25 25 0 0 0-34 23v54a25 25 0 0 0 16 23l124 50-124 50a25 25 0 0 0-16 23v54a25 25 0 0 0 34 23l250-100a25 25 0 0 0 16-23v-54a25 25 0 0 0-16-23z m316-150a25 25 0 0 0-25-25h-250a25 25 0 0 0-25 25v50a25 25 0 0 0 25 25h250a25 25 0 0 0 25-25z" horiz-adv-x="1000" />

<glyph glyph-name="halflings-pro-text" unicode="&#xe8e6;" d="M850 700v-150a50 50 0 0 0-50-50h-50a50 50 0 0 0-50 50v50h-150v-500h50a50 50 0 0 0 50-50v-50a50 50 0 0 0-50-50h-250a50 50 0 0 0-50 50v50a50 50 0 0 0 50 50h50v500h-150v-50a50 50 0 0 0-50-50h-50a50 50 0 0 0-50 50v150a50 50 0 0 0 50 50h650a50 50 0 0 0 50-50z" horiz-adv-x="1000" />

<glyph glyph-name="halflings-pro-text-background" unicode="&#xe8e7;" d="M750 750h-500a150 150 0 0 1-150-150v-500a150 150 0 0 1 150-150h500a150 150 0 0 1 150 150v500a150 150 0 0 1-150 150z m0-300a50 50 0 0 0-100 0v50h-100v-300h50a50 50 0 0 0 0-100h-200a50 50 0 0 0 0 100h50v300h-100v-50a50 50 0 0 0-100 0v100a50 50 0 0 0 50 50h400a50 50 0 0 0 50-50z" horiz-adv-x="1000" />

<glyph glyph-name="halflings-pro-text-underline" unicode="&#xe8e8;" d="M850 0a50 50 0 0 0-50-50h-650a50 50 0 0 0 0 100h650a50 50 0 0 0 50-50z m-650 500h50a50 50 0 0 1 50 50v50h100v-300h-50a50 50 0 0 1-50-50v-50a50 50 0 0 1 50-50h250a50 50 0 0 1 50 50v50a50 50 0 0 1-50 50h-50v300h100v-50a50 50 0 0 1 50-50h50a50 50 0 0 1 50 50v150a50 50 0 0 1-50 50h-550a50 50 0 0 1-50-50v-150a50 50 0 0 1 50-50z" horiz-adv-x="1000" />

<glyph glyph-name="halflings-pro-thumbnails" unicode="&#xe8e9;" d="M450 700v-250a50 50 0 0 0-50-50h-250a50 50 0 0 0-50 50v250a50 50 0 0 0 50 50h250a50 50 0 0 0 50-50z m-50-400h-250a50 50 0 0 1-50-50v-250a50 50 0 0 1 50-50h250a50 50 0 0 1 50 50v250a50 50 0 0 1-50 50z m450 450h-250a50 50 0 0 1-50-50v-250a50 50 0 0 1 50-50h250a50 50 0 0 1 50 50v250a50 50 0 0 1-50 50z m0-450h-250a50 50 0 0 1-50-50v-250a50 50 0 0 1 50-50h250a50 50 0 0 1 50 50v250a50 50 0 0 1-50 50z" horiz-adv-x="1000" />

<glyph glyph-name="halflings-pro-thumbnails-small" unicode="&#xe8ea;" d="M300 700v-100a50 50 0 0 0-50-50h-100a50 50 0 0 0-50 50v100a50 50 0 0 0 50 50h100a50 50 0 0 0 50-50z m-50-250h-100a50 50 0 0 1-50-50v-100a50 50 0 0 1 50-50h100a50 50 0 0 1 50 50v100a50 50 0 0 1-50 50z m0-300h-100a50 50 0 0 1-50-50v-100a50 50 0 0 1 50-50h100a50 50 0 0 1 50 50v100a50 50 0 0 1-50 50z m300 600h-100a50 50 0 0 1-50-50v-100a50 50 0 0 1 50-50h100a50 50 0 0 1 50 50v100a50 50 0 0 1-50 50z m0-300h-100a50 50 0 0 1-50-50v-100a50 50 0 0 1 50-50h100a50 50 0 0 1 50 50v100a50 50 0 0 1-50 50z m0-300h-100a50 50 0 0 1-50-50v-100a50 50 0 0 1 50-50h100a50 50 0 0 1 50 50v100a50 50 0 0 1-50 50z m300 600h-100a50 50 0 0 1-50-50v-100a50 50 0 0 1 50-50h100a50 50 0 0 1 50 50v100a50 50 0 0 1-50 50z m0-300h-100a50 50 0 0 1-50-50v-100a50 50 0 0 1 50-50h100a50 50 0 0 1 50 50v100a50 50 0 0 1-50 50z m0-300h-100a50 50 0 0 1-50-50v-100a50 50 0 0 1 50-50h100a50 50 0 0 1 50 50v100a50 50 0 0 1-50 50z" horiz-adv-x="1000" />

<glyph glyph-name="halflings-pro-times" unicode="&#xe8eb;" d="M783 209a50 50 0 0 0 0-71l-71-71a50 50 0 0 0-71 0l-141 142-141-142a50 50 0 0 0-71 0l-71 71a50 50 0 0 0 0 71l142 141-142 141a50 50 0 0 0 0 71l71 71a50 50 0 0 0 71 0l141-142 141 142a50 50 0 0 0 71 0l71-71a50 50 0 0 0 0-71l-142-141z" horiz-adv-x="1000" />

<glyph glyph-name="halflings-pro-trending" unicode="&#xe8ec;" d="M950 600v-300a50 50 0 0 0-50-50h-50a50 50 0 0 0-50 50v94l-265-265a50 50 0 0 0-70 0l-115 115-162-162a50 50 0 0 0-70 0l-36 36a50 50 0 0 0 0 70l233 233a50 50 0 0 0 70 0l115-115 194 194h-94a50 50 0 0 0-50 50v50a50 50 0 0 0 50 50h300a50 50 0 0 0 50-50z" horiz-adv-x="1000" />

<glyph glyph-name="halflings-pro-triangle-alert" unicode="&#xe8ed;" d="M939 64l-375 616a75 75 0 0 1-128 0l-375-616a75 75 0 0 1 64-114h750a75 75 0 0 1 64 114z m-389 14a25 25 0 0 0-25-25h-50a25 25 0 0 0-25 25v50a25 25 0 0 0 25 25h50a25 25 0 0 0 25-25z m0 225l-13-79a25 25 0 0 0-25-21h-24a25 25 0 0 0-25 21l-13 79v175a25 25 0 0 0 25 25h50a25 25 0 0 0 25-25z" horiz-adv-x="1000" />

<glyph glyph-name="halflings-pro-tv" unicode="&#xe8ee;" d="M850 750h-700a100 100 0 0 1-100-100v-400a100 100 0 0 1 100-100h700a100 100 0 0 1 100 100v400a100 100 0 0 1-100 100z m-700-500v400h700l0-400z m550-200a50 50 0 0 0-50-50h-300a50 50 0 0 0 0 100h300a50 50 0 0 0 50-50z" horiz-adv-x="1000" />

<glyph glyph-name="halflings-pro-underline" unicode="&#xe8ef;" d="M150 650v50a50 50 0 0 0 50 50h150a50 50 0 0 0 50-50v-50a50 50 0 0 0-50-50v-225a75 75 0 0 1 75-75h100a75 75 0 0 1 75 75v225a50 50 0 0 0-50 50v50a50 50 0 0 0 50 50h150a50 50 0 0 0 50-50v-50a50 50 0 0 0-50-50v-225a225 225 0 0 0-225-225h-100a225 225 0 0 0-225 225v225a50 50 0 0 0-50 50z m650-600h-650a50 50 0 0 1 0-100h650a50 50 0 0 1 0 100z" horiz-adv-x="1000" />

<glyph glyph-name="halflings-pro-usb-device" unicode="&#xe8f0;" d="M850 350v350a50 50 0 0 1-50 50h-600a50 50 0 0 1-50-50v-350a50 50 0 0 1-50-50v-200a150 150 0 0 1 150-150h500a150 150 0 0 1 150 150v200a50 50 0 0 1-50 50z m-600 300h500v-300h-500z m100-100h100v-100h-100z m200 0h100v-100h-100z" horiz-adv-x="1000" />

<glyph glyph-name="halflings-pro-user" unicode="&#xe8f1;" d="M850 51v-51a50 50 0 0 0-50-50h-600a50 50 0 0 0-50 50v51a50 50 0 0 0 19 39l128 102a200 200 0 0 1 168-92h70a200 200 0 0 1 168 92l128-102a50 50 0 0 0 19-39z m-476 208a100 100 0 0 1 91-59h70a100 100 0 0 1 91 59l57 127a200 200 0 0 1 17 81v83a199 199 0 0 1-200 200 210 210 0 0 1-200-209v-74a200 200 0 0 1 17-81z" horiz-adv-x="1000" />

<glyph glyph-name="halflings-pro-user-group" unicode="&#xe8f2;" d="M785 90a50 50 0 0 0 15-36v-54a50 50 0 0 0-50-50h-500a50 50 0 0 0-50 50v54a50 50 0 0 0 15 36l90 90a200 200 0 0 1 160-80h70a200 200 0 0 1 160 80z m-559 256a298 298 0 0 0-26 121v74a308 308 0 0 0 44 158 210 210 0 0 1-194-208v-46a200 200 0 0 1 44-125l26-32a99 99 0 0 1 24-22 49 49 0 0 1-9-6l-120-120a50 50 0 0 1-15-36v-54a50 50 0 0 1 50-50h50v54a151 151 0 0 0 44 106l114 114z m759-206l-120 120a49 49 0 0 1-9 6 99 99 0 0 1 24 22l26 32a200 200 0 0 1 44 125v55a198 198 0 0 1-190 199 298 298 0 0 0 40-149v-83a298 298 0 0 0-26-121l-32-72 114-114a151 151 0 0 0 44-106v-54h50a50 50 0 0 1 50 50v54a50 50 0 0 1-15 36z m-611 119a100 100 0 0 1 91-59h70a100 100 0 0 1 91 59l57 127a200 200 0 0 1 17 81v83a199 199 0 0 1-200 200 210 210 0 0 1-200-209v-74a200 200 0 0 1 17-81z" horiz-adv-x="1000" />

<glyph glyph-name="halflings-pro-vector-path" unicode="&#xe8f3;" d="M400 500v200a50 50 0 0 1-50 50h-200a50 50 0 0 1-50-50v-200a50 50 0 0 1 50-50h200a50 50 0 0 1 50 50z m-100 50h-100v100h100z m0-400h200v-100h-250a50 50 0 0 0-50 50v250h100z m550 100h-200a50 50 0 0 1-50-50v-200a50 50 0 0 1 50-50h200a50 50 0 0 1 50 50v200a50 50 0 0 1-50 50z m-50-200h-100v100h100z m-100 500h-200v100h250a50 50 0 0 0 50-50v-250h-100z" horiz-adv-x="1000" />

<glyph glyph-name="halflings-pro-verify-check" unicode="&#xe8f4;" d="M891 452l-54 38 12 64a125 125 0 0 1-145 145l-64-11-38 53a125 125 0 0 1-204 0l-38-53-64 11a125 125 0 0 1-145-145l12-64-54-38a125 125 0 0 1 0-204l54-38-12-64a125 125 0 0 1 145-145l64 12 38-54a125 125 0 0 1 204 0l38 54 64-12a124 124 0 0 1 110 35 125 125 0 0 1 35 110l-12 64 54 38a125 125 0 0 1 0 204z m-177 12l-226-267a50 50 0 0 0-75-1l-112 124a25 25 0 0 0 1 33l27 30a25 25 0 0 0 32 4l81-51 214 185a25 25 0 0 0 33-1l23-22a25 25 0 0 0 2-34z" horiz-adv-x="1000" />

<glyph glyph-name="halflings-pro-verify-empty" unicode="&#xe8f5;" d="M891 452l-54 38 12 64a125 125 0 0 1-145 145l-64-11-38 53a125 125 0 0 1-204 0l-38-53-64 11a125 125 0 0 1-145-145l12-64-54-38a125 125 0 0 1 0-204l54-38-12-64a125 125 0 0 1 145-145l64 12 38-54a125 125 0 0 1 204 0l38 54 64-12a124 124 0 0 1 110 35 125 125 0 0 1 35 110l-12 64 54 38a125 125 0 0 1 0 204z m-57-122l-106-74 22-127a25 25 0 0 0-7-22 25 25 0 0 0-22-7l-127 22-73-105a25 25 0 0 0-41 0l-74 105-127-22a25 25 0 0 0-29 29l22 127-105 74a25 25 0 0 0 0 41l105 73-22 127a25 25 0 0 0 7 22 25 25 0 0 0 22 7l127-22 74 106a25 25 0 0 0 41 0l73-106 127 22a25 25 0 0 0 29-29l-22-127 106-73a25 25 0 0 0 0-41z" horiz-adv-x="1000" />

<glyph glyph-name="halflings-pro-video" unicode="&#xe8f6;" d="M650 500v-300a100 100 0 0 0-100-100h-350a100 100 0 0 0-100 100v300a100 100 0 0 0 100 100h350a100 100 0 0 0 100-100z m250 50h-50l-100-80v-240l100-80h50a50 50 0 0 1 50 50v300a50 50 0 0 1-50 50z" horiz-adv-x="1000" />

<glyph glyph-name="halflings-pro-video-off" unicode="&#xe8f7;" d="M950 500v-300a50 50 0 0 0-50-50h-50l-100 80v232l40 40 60 48h50a50 50 0 0 0 50-50z m-400-400a100 100 0 0 1 100 100v162l-262-262z m318 685a50 50 0 0 1-71 0l-198-198a99 99 0 0 1-49 13h-350a100 100 0 0 1-100-100v-300a99 99 0 0 1 36-76l-71-71a50 50 0 1 1 70-71l733 733a50 50 0 0 1 0 70z" horiz-adv-x="1000" />

<glyph glyph-name="halflings-pro-video-play" unicode="&#xe8f8;" d="M800 700h-600a100 100 0 0 1-100-100v-500a100 100 0 0 1 100-100h600a100 100 0 0 1 100 100v500a100 100 0 0 1-100 100z m-157-389l-166-107a50 50 0 0 0-77 43v212a50 50 0 0 0 77 42l166-106a50 50 0 0 0 0-84z" horiz-adv-x="1000" />

<glyph glyph-name="halflings-pro-video-play-empty" unicode="&#xe8f9;" d="M750 700h-500a150 150 0 0 1-150-150v-400a150 150 0 0 1 150-150h500a150 150 0 0 1 150 150v400a150 150 0 0 1-150 150z m50-550a50 50 0 0 0-50-50h-500a50 50 0 0 0-50 50v400a50 50 0 0 0 50 50h500a50 50 0 0 0 50-50z m-157 161l-166-107a50 50 0 0 0-77 43v212a50 50 0 0 0 77 42l166-106a50 50 0 0 0 0-84z" horiz-adv-x="1000" />

<glyph glyph-name="halflings-pro-volume-down" unicode="&#xe8fa;" d="M500 550v-400a50 50 0 0 0-80-40l-120 90h-150a50 50 0 0 0-50 50v200a50 50 0 0 0 50 50h150l120 90a50 50 0 0 0 80-40z m142-59a50 50 0 0 1-71-70 100 100 0 0 0 0-142 50 50 0 0 1 71-70 200 200 0 0 1 0 282z" horiz-adv-x="1000" />

<glyph glyph-name="halflings-pro-volume-off" unicode="&#xe8fb;" d="M900 350a397 397 0 0 0-117-283 50 50 0 0 0-71 71 299 299 0 0 1 57 343l74 74a397 397 0 0 0 57-205z m-208 54l-108-108a101 101 0 0 0-13-17 50 50 0 0 1 71-70 195 195 0 0 1 50 195z m-272-294a50 50 0 0 1 80 40v62l-93-93z m448 675a50 50 0 0 1-71 0l-297-297v62a50 50 0 0 1-80 40l-120-90h-150a50 50 0 0 1-50-50v-200a50 50 0 0 1 50-50h62l-147-147a50 50 0 1 1 70-71l733 733a50 50 0 0 1 0 70z" horiz-adv-x="1000" />

<glyph glyph-name="halflings-pro-volume-up" unicode="&#xe8fc;" d="M500 550v-400a50 50 0 0 0-80-40l-120 90h-150a50 50 0 0 0-50 50v200a50 50 0 0 0 50 50h150l120 90a50 50 0 0 0 80-40z m142-59a50 50 0 0 1-71-70 100 100 0 0 0 0-142 50 50 0 0 1 71-70 200 200 0 0 1 0 282z m141 142a50 50 0 0 1-71-71 299 299 0 0 0 0-424 50 50 0 1 1 71-71 399 399 0 0 1 0 566z" horiz-adv-x="1000" />

<glyph glyph-name="halflings-pro-wallet" unicode="&#xe8fd;" d="M800 550h-525a25 25 0 0 0-25 25v50a25 25 0 0 0 25 25h575a100 100 0 0 1-100 100h-500a150 150 0 0 1-150-150v-500a150 150 0 0 1 150-150h500a150 150 0 0 1 150 150v350a100 100 0 0 1-100 100z m-125-350a75 75 0 1 0 75 75 75 75 0 0 0-75-75z" horiz-adv-x="1000" />

<glyph glyph-name="halflings-pro-wifi" unicode="&#xe8fe;" d="M500 438a472 472 0 0 0 317-122 25 25 0 0 0 0-36l-53-53a25 25 0 0 0-34-1 349 349 0 0 1-460 0 25 25 0 0 0-34 1l-53 53a25 25 0 0 0 0 36 472 472 0 0 0 317 122z m-137-297a25 25 0 0 1-3-38c34-34 104-104 122-123a25 25 0 0 1 36 0c18 19 88 89 122 123a25 25 0 0 1-3 38 225 225 0 0 1-274 0z m137 547a720 720 0 0 1-494-195 25 25 0 0 1 0-36l53-53a25 25 0 0 1 34-1 599 599 0 0 0 814 0 25 25 0 0 1 34 1l53 53a25 25 0 0 1 0 36 720 720 0 0 1-494 195z" horiz-adv-x="1000" />

<glyph glyph-name="halflings-pro-wrench" unicode="&#xe8ff;" d="M900 525a225 225 0 0 0-225-225 223 223 0 0 0-71 13l-348-348a50 50 0 0 0-71 0l-70 70a50 50 0 0 0 0 71l348 348a223 223 0 0 0-13 71 225 225 0 0 0 225 225 223 223 0 0 0 71-12l-124-125a25 25 0 0 1 0-35l106-106a25 25 0 0 1 35 0l124 124a223 223 0 0 0 13-71z" horiz-adv-x="1000" />

<glyph glyph-name="halflings-pro-adjust" unicode="&#xe900;" d="M150 200h100v-225a25 25 0 0 0-25-25h-50a25 25 0 0 0-25 25z m300-225a25 25 0 0 1 25-25h50a25 25 0 0 1 25 25v75h-100z m-200 525v225a25 25 0 0 1-25 25h-50a25 25 0 0 1-25-25v-225a50 50 0 0 1-50-50v-100a50 50 0 0 1 50-50h100a50 50 0 0 1 50 50v100a50 50 0 0 1-50 50z m300-150v375a25 25 0 0 1-25 25h-50a25 25 0 0 1-25-25v-375a50 50 0 0 1-50-50v-100a50 50 0 0 1 50-50h100a50 50 0 0 1 50 50v100a50 50 0 0 1-50 50z m300 250v125a25 25 0 0 1-25 25h-50a25 25 0 0 1-25-25v-125a50 50 0 0 1-50-50v-100a50 50 0 0 1 50-50h100a50 50 0 0 1 50 50v100a50 50 0 0 1-50 50z m-100-625a25 25 0 0 1 25-25h50a25 25 0 0 1 25 25v325h-100z" horiz-adv-x="1000" />

<glyph glyph-name="halflings-pro-airplane" unicode="&#xe901;" d="M900 276v-52a50 50 0 0 0-69-46l-243 97-20-119 123-98a25 25 0 0 0 9-20v-51a25 25 0 0 0-34-23l-166 66-166-66a25 25 0 0 0-34 23v51a25 25 0 0 0 9 20l123 98-19 119-244-97a50 50 0 0 0-69 46v52a50 50 0 0 0 19 39l281 225v160a100 100 0 0 0 200 0v-160l281-225a50 50 0 0 0 19-39z" horiz-adv-x="1000" />

<glyph glyph-name="halflings-pro-anchor" unicode="&#xe902;" d="M870 298l-199-24a25 25 0 0 1-15-43l29-28-54-53h-81v267a175 175 0 1 1-150 1v-268h-81l-53 53 28 28a25 25 0 0 1-15 43l-199 24a25 25 0 0 1-28-28l24-199a25 25 0 0 1 43-15l41 41 75-75a75 75 0 0 1 53-22h103l64-88a25 25 0 0 1 40 0l64 88h104a75 75 0 0 1 53 22l75 75 40-41a25 25 0 0 1 43 15l24 199a25 25 0 0 1-28 28z m-393 202a75 75 0 1 0 75 75 75 75 0 0 0-75-75z" horiz-adv-x="1000" />

</font>
</defs>
</svg>
